<svg id="katman_1" data-name="katman 1" xmlns="http://www.w3.org/2000/svg" xmlns:xlink="http://www.w3.org/1999/xlink" viewBox="0 0 362.09 344.35"><defs><style>.cls-1{fill:url(#Adsız_degrade_167);}.cls-2{fill:url(#Adsız_degrade_117);}.cls-3,.cls-4{fill:#4daa62;}.cls-4{opacity:0.7;}.cls-5{fill:#fff;}.cls-6{fill:url(#Adsız_degrade_185);}.cls-7{fill:url(#Adsız_degrade_185-2);}.cls-8{fill:#acd192;}</style><linearGradient id="Adsız_degrade_167" x1="-34.16" y1="93.85" x2="396.24" y2="250.5" gradientUnits="userSpaceOnUse"><stop offset="0" stop-color="#1d331b"/><stop offset="1" stop-color="#4c933f"/></linearGradient><linearGradient id="Adsız_degrade_117" x1="115.42" y1="199.19" x2="246.67" y2="67.94" gradientUnits="userSpaceOnUse"><stop offset="0" stop-color="#c8e0b2"/><stop offset="0.99" stop-color="#95c456"/></linearGradient><linearGradient id="Adsız_degrade_185" x1="408.4" y1="275.11" x2="445.66" y2="275.11" gradientUnits="userSpaceOnUse"><stop offset="0" stop-color="#fff"/><stop offset="1" stop-color="#4c933f" stop-opacity="0"/></linearGradient><linearGradient id="Adsız_degrade_185-2" x1="139.85" y1="204.41" x2="177.12" y2="204.41" gradientTransform="translate(55.45 -31.09) rotate(13.93)" xlink:href="#Adsız_degrade_185"/></defs><rect class="cls-1" width="362.09" height="344.35"/><circle class="cls-2" cx="181.04" cy="133.57" r="92.8"/><path class="cls-3" d="M375.63,326.76H275.84a7.29,7.29,0,0,0-.12,14.57l42.93.67a9.67,9.67,0,0,1-.15,19.34H293a7.28,7.28,0,0,0-7.28,7.31v1.19a7.28,7.28,0,0,0,7.29,7.25h43.26A93.05,93.05,0,0,0,375.63,326.76Z" transform="translate(-106.49 -164.69)"/><path class="cls-4" d="M308.16,273.61l-42.93-.67a9.67,9.67,0,0,1-9.51-9.42h0a9.66,9.66,0,0,1,9.67-9.91h17.46a7.88,7.88,0,1,0,0-15.76H216.54a92.34,92.34,0,0,0-21.81,50.33H308.05a7.29,7.29,0,0,0,.11-14.57Z" transform="translate(-106.49 -164.69)"/><g id="Elipse_group" data-name="Elipse group"><circle class="cls-5" cx="304.03" cy="49.38" r="2.62"/><circle class="cls-5" cx="228.9" cy="23.4" r="1.41"/><circle class="cls-5" cx="37.42" cy="300.7" r="4.5"/><circle class="cls-5" cx="26.47" cy="219.57" r="2.11"/><circle class="cls-5" cx="76.47" cy="12.38" r="1.5"/><circle class="cls-5" cx="53.59" cy="96.21" r="2.12"/><circle class="cls-5" cx="321.21" cy="177.33" r="1.03"/><circle class="cls-5" cx="306.34" cy="320.81" r="2.2"/><path class="cls-6" d="M445.66,255.18C424.3,280.7,408.4,295,408.4,295" transform="translate(-106.49 -164.69)"/><path class="cls-7" d="M183,190.59c-26.87,19.62-45.77,29.72-45.77,29.72" transform="translate(-106.49 -164.69)"/></g><path class="cls-8" d="M216.05,443.63c.57,2.51,2.24,4,5.35,4,3.45,0,4.77-1.72,4.77-3.77s-.94-3.46-5.1-4.49c-4-1-5.72-2.29-5.72-5,0-2.48,1.81-4.8,5.86-4.8s5.91,2.54,6.15,4.83h-1.51c-.43-2-1.76-3.48-4.73-3.48-2.72,0-4.21,1.27-4.21,3.37s1.25,2.89,4.73,3.75c5.32,1.33,6.1,3.46,6.1,5.73,0,2.78-2,5.18-6.4,5.18-4.72,0-6.45-2.75-6.8-5.29Z" transform="translate(-106.49 -164.69)"/><path class="cls-8" d="M243.43,442.17,241,448.7h-1.49l6.94-18.89h1.73l7.23,18.89h-1.59l-2.46-6.53Zm7.47-1.35c-2.1-5.61-3.18-8.31-3.56-9.58h0c-.45,1.43-1.67,4.78-3.37,9.58Z" transform="translate(-106.49 -164.69)"/><path class="cls-8" d="M268.24,429.81h1.46v17.54h10.15l-.27,1.35H268.24Z" transform="translate(-106.49 -164.69)"/><path class="cls-8" d="M292.78,443.63c.57,2.51,2.24,4,5.35,4,3.45,0,4.78-1.72,4.78-3.77s-1-3.46-5.11-4.49c-4-1-5.72-2.29-5.72-5,0-2.48,1.81-4.8,5.86-4.8s5.91,2.54,6.15,4.83h-1.51c-.43-2-1.75-3.48-4.72-3.48-2.73,0-4.21,1.27-4.21,3.37s1.24,2.89,4.72,3.75c5.32,1.33,6.1,3.46,6.1,5.73,0,2.78-2,5.18-6.4,5.18-4.72,0-6.45-2.75-6.8-5.29Z" transform="translate(-106.49 -164.69)"/><path class="cls-8" d="M318.06,429.81h1.45V438h11.34v-8.23h1.46V448.7h-1.46v-9.31H319.51v9.31h-1.45Z" transform="translate(-106.49 -164.69)"/><path class="cls-8" d="M349.08,442.17l-2.4,6.53h-1.49l6.94-18.89h1.73l7.23,18.89H359.5L357,442.17Zm7.47-1.35c-2.1-5.61-3.18-8.31-3.56-9.58h0c-.45,1.43-1.67,4.78-3.37,9.58Z" transform="translate(-106.49 -164.69)"/></svg>