<svg xmlns="http://www.w3.org/2000/svg" xmlns:xlink="http://www.w3.org/1999/xlink" viewBox="0 0 1200 1200"><defs><style>.cls-1{fill:none;}.cls-2{fill:#e6e6e7;}.cls-3{fill:#fff;}.cls-4{fill:url(#New_Pattern_Swatch_6);}</style><pattern id="New_Pattern_Swatch_6" data-name="New Pattern Swatch 6" width="1000" height="1000" patternUnits="userSpaceOnUse" viewBox="0 0 1000 1000"><rect class="cls-1" width="1000" height="1000"/><path class="cls-2" d="M0,1000H23.1c-7.7-1.3-15.4-2.4-23.1-3.2Z"/><path class="cls-2" d="M968.7,995.7a165.9,165.9,0,0,0-28.1,4.3H1000v-3.2A181.7,181.7,0,0,0,968.7,995.7Z"/><path class="cls-2" d="M480.3,122.4C427.7,152.5,375.5,184,328.2,222c-7.5,6.1-29,25.2-29,25.2s139.1-34.8,204.4-63.9S629.9,107.2,657.1,41.2c4.6-11.1,8.1-25.8,10.7-41.2H630.6c-5.4,7.5-11,14.7-16.7,21.7C577.3,66.5,529.6,94.1,480.3,122.4Z"/><path class="cls-2" d="M270.3,226.5c-.1,17.4-1,34.9-2.8,52.2,17-35.3,34.4-71.3,62.1-99.1,11.8-11.8,25.2-21.3,39.1-30.3,11.6-7.5,23.5-14.6,35.5-21.3,29.2-16.5,59.3-30.9,88.4-47.5,19.5-11.1,38.6-23.7,57.1-36.7A330.7,330.7,0,0,0,600.7,0H563C502,34.7,429.3,42.4,366.5,74.7,310.8,103.4,270.7,163.1,270.3,226.5Z"/><path class="cls-2" d="M442.5,0H381.3C370.9,14.7,362,30.5,353.7,46.5,377.3,22.3,409.7,9.3,442.5,0Z"/><path class="cls-2" d="M630.6,1000h37.2c6.7-39.5,7.9-83.6,7.9-83.6C665.4,945.9,649.2,974.3,630.6,1000Z"/><path class="cls-2" d="M642.8,928.3c-5,6.7-10.3,13.1-15.8,19.3a286.5,286.5,0,0,1-36.4,34.1A231.4,231.4,0,0,1,563,1000h37.7c45.8-48.3,55.7-90.5,55.7-90.5S647.3,922.2,642.8,928.3Z"/><path class="cls-2" d="M565.8,959.7c28.4-16.8,50.8-41.5,70.4-67.7-18.6,19.7-48.1,22.1-73.5,24.2-50.9,4.5-104.1,12.7-144.4,44.1-14.4,11.2-26.5,24.8-37,39.7h61.2l13.9-3.7C493.8,986.7,532.6,979.3,565.8,959.7Z"/><path class="cls-2" d="M769.7,438.8c-42.8,19.7-80.8,49.5-122.2,70.7-43.3,22.2-97.5,45.3-147.7,37a116.9,116.9,0,0,1-22.8-6.2,126.1,126.1,0,0,1-29.3-16.5c-4-2.9-24.2-16-24.2-20.8-.1,18.1,2.3,34.3,12.4,49.7,27.6,41.6,85.6,53.8,132.2,48.2A182.4,182.4,0,0,0,620,587.3c70.2-30.8,115-103.4,189.3-126.7,31.1-9.8,69.7-8.9,102.1-6C865.4,419.9,818.7,416.3,769.7,438.8Z"/><path class="cls-2" d="M879.5,471.4c-13.2.2-26.4,1.6-38.9,5.6-3.3,1-6.6,2.2-9.8,3.4C811.1,488,792.2,499,775.6,511s-33.2,28.6-49.7,43-36.7,27.5-56.1,40c-17.8,11.5-35.3,22.8-56.2,28.7-27.8,7.7-61.1,8.2-88.5-1.6,5.7,2.1,11,5.7,16.7,8a146,146,0,0,0,18.4,5.9,179.1,179.1,0,0,0,38.6,5c25.3.6,51-3.3,75.2-10.4,47.4-13.9,89.3-43.1,124.8-74.9,13.7-12.3,27.8-24.1,40.9-37.2C869.8,487.5,919,473,919,473l-19.2-1.2C893,471.5,886.2,471.3,879.5,471.4Z"/><path class="cls-2" d="M842.3,557.9c-24.7,20.4-46.7,43.8-72.8,62.7-51.5,37.2-120.6,58.8-185.1,47.8-30.6-5.2-59.1-17.9-85.8-32.8-12.9-7.2-25.6-14.8-37.8-23.2-6.5-4.5-12.9-9.1-19.2-14-4.3-3.4-17.4-14.5-17.4-14.5s31.7,67.7,140.5,110.9c70.8,28.1,159.2,17.1,224.5-23.2a198.6,198.6,0,0,0,17.1-11.7,236.3,236.3,0,0,0,20-17.3c20.5-20.3,36.8-44,52.3-68,13.9-21.4,26-45.9,48.6-60.2-30.4,4.9-57.5,21.3-81.1,40.4C844.8,555.8,843.5,556.8,842.3,557.9Z"/><path class="cls-2" d="M970.2,369.5c-19.3,20.3-43.5,51.1-41.1,80.6,2.2-8.6,7.2-15.9,13.2-22.3,15.5-16.3,36.2-26.4,57.7-33.6v-51A226.1,226.1,0,0,0,970.2,369.5Z"/><path class="cls-2" d="M957.8,444.6a107.9,107.9,0,0,0-24.1,55.8c9.4-17.6,24.3-35.1,41.9-44.8,6.9-3.8,15.5-5.6,24.4-6.7V416.8a105.4,105.4,0,0,0-25.6,12.7A78.6,78.6,0,0,0,957.8,444.6Z"/><path class="cls-2" d="M948.9,510.7a.8.8,0,0,1,.2-.4A.8.8,0,0,0,948.9,510.7Z"/><path class="cls-2" d="M949.1,510.3c2.8-2.9,19.3-4,22.4-4.4,10.1-1.3,19,.1,28.5,3.4V478.9a108.3,108.3,0,0,0-24.1,8.8A76.7,76.7,0,0,0,949.1,510.3Z"/><path class="cls-2" d="M88.8,366.9c29.6-13.2,55.4-35.2,72.3-62.8s24.6-61.1,20.6-93.2a174.2,174.2,0,0,1-77.4,80.6c-16.9,8.8-35.2,14.7-52.8,22.2A263.1,263.1,0,0,0,0,343.2v51c4.1-1.4,8.1-2.7,12.2-3.9C37.9,382.9,64.4,377.9,88.8,366.9Z"/><path class="cls-2" d="M127.3,425.7c31.5-12.1,61-31.2,81.2-58.2s30.5-60.9,31.1-94.7-8-67.3-22.6-97.8c3.5,45.1-3.6,91.5-24.5,131.7s-56,73.4-98.8,88.1c-28.9,10-63.8,11.4-93.7,22v32.1c9.9-1.1,20.1-1.3,28.6-2.2C62.2,443.3,95.9,437.8,127.3,425.7Z"/><path class="cls-2" d="M102.5,509.9c27.5-13.5,48.8-40,54-70.2C137.7,456.9,112.2,465,87,468.9c-26.9,4.1-58.9,3.1-87,10v30.4l.6.2C34.5,521.5,68.8,526.4,102.5,509.9Z"/><path class="cls-2" d="M361.2,357.2c-33.8,32-60.9,77.2-60.8,122.3,0,22.2,6.7,44.4,22.3,65-3-23.2-6-47.2,1.9-69.6s19.9-40.4,33.8-57.7c32.4-40.2,83.1-58.2,128-80.5,33.4-16.5,71.3-38.4,85.1-75.1,5-13.3,10.2-42,10.2-42S553,263,477.2,285.6C433.7,298.6,394.5,325.8,361.2,357.2Z"/><path class="cls-2" d="M240.7,464.1c7.6,27,28.7,47.8,48.9,67.3-15.4-39.4-18-86.4-3.5-126.3,12.7-35.3,37.1-65.8,67.3-88.1,19.3-14.3,40.8-25.4,62.5-35.7,32.3-15.5,65.9-29.7,101.5-33.5-47.2.9-94.9,4-140,17.7-39.3,11.9-75.8,32.3-103.9,62.5s-39.6,75.9-36.2,116.1A113,113,0,0,0,240.7,464.1Z"/><path class="cls-2" d="M459.1,439.5c25.5-15.5,52.4-30,72.8-51.9a137.4,137.4,0,0,0,34.4-67.3c-25.7,25.3-60.1,39.2-93.2,53.5C405.7,403,320.5,457.5,355,543.6a104.4,104.4,0,0,0,19.3,30.9c4,4.5,19.3,17.3,19.3,17.3s-5.6-16.3-7.8-23.1a106.1,106.1,0,0,1-5.3-23.6c-1.3-16.6,2.3-33,11.4-47.1C408.1,473,434,454.7,459.1,439.5Z"/><path class="cls-2" d="M577.9,183.9,554.5,198s81-11.3,110.1-29.1c34.3-21.1,56.6-58.3,66.3-97.5,5.8-23.3,7.5-47.3,6.8-71.4H722.8C699.6,76.5,647.6,144,577.9,183.9Z"/><path class="cls-2" d="M672.8,198.4c-17.9,11.9-39.3,22.3-61.3,18.3a71.1,71.1,0,0,0,34.4,11.7c80.6,5.5,147.8-62.5,159.7-139,4.3-27.3,5.5-59.2.8-89.4H772.9c-.1,18-1.2,36-4.5,53.7C757.5,112.1,722.2,165.5,672.8,198.4Z"/><path class="cls-2" d="M722.8,1000h14.9a465.8,465.8,0,0,0-4.2-48.7A311.1,311.1,0,0,1,722.8,1000Z"/><path class="cls-2" d="M777.9,928.1c-7.7-10-26.2-27.1-26.2-27.1s20.6,58.8,21.1,88.1c.1,3.7.1,7.3.1,10.9h33.5C802.2,973.5,793.4,948.2,777.9,928.1Z"/><path class="cls-2" d="M501.9,444s5.4,6.3,7.7,9.3a40.7,40.7,0,0,0,11.1,10,59.5,59.5,0,0,0,30.7,8.8c35.3.4,59.3-23.6,74.4-53.3,13.6-26.9,25.9-54.4,39.7-81.3,9.4-18.1,18.3-39,30.8-56.5a97.3,97.3,0,0,1,21.1-22.3c8.8-6.7,28.8-17.1,28.8-17.1s-15.5-.1-20.7.4c-28.4,2.8-47,14.4-63.7,37.2-23.7,32.3-37.6,71.8-55.6,107.4C566.9,464.8,501.9,444,501.9,444Z"/><path class="cls-2" d="M682.9,353.9c-6,14.7-11.5,29.4-16.8,43.5-10.3,27.3-17.6,56.5-40.7,76.3,3.1-2.6,11.8-3.4,15.7-5.2a77,77,0,0,0,15.4-9.1c16.3-12.5,29.6-33.1,40.8-50.3,32.7-50.2,47.2-108.8,77.6-160.2,9.7-16.6,38.3-42,38.3-42s-50.4,27.9-70.8,48.1C715.4,281.7,697.6,317.7,682.9,353.9Z"/><path class="cls-2" d="M743.7,379.5c-6.3,9.3-13,18.2-19.9,27.1-2.1,2.7-4.2,5.3-6.2,8-7.4,9.5-15.4,20.7-28.3,25.1,53.4-18.3,96.6-54.3,121.5-98.9,23.2-41.5,26.2-89.9,53.6-129.7,16-23.2,39.9-41.6,65.1-57.5-10.9,3.3-21.7,6.9-32.3,11-17.7,6.7-35.1,14.5-49.3,25.8-19.2,15.3-31.6,36-40.9,57.1C787.2,292.7,772.2,337.5,743.7,379.5Z"/><path class="cls-2" d="M907.3,390.2c28.5-27,53.7-73.1,90.8-88.2l1.9-.8V226.5C956.3,258.3,917.8,337.4,907.3,390.2Z"/><path class="cls-2" d="M894.5,237.2c-3.9,8.2-6.6,16.9-9.4,25.5-22.1,67.8.1,125.8.1,125.8s4.6-24.7,6.1-30.7c9.2-37.4,18.3-72.7,40.8-104.6a242.6,242.6,0,0,1,67.9-63.8V141.8a165.2,165.2,0,0,0-22.4,9.8C941.9,170.2,911.4,200.8,894.5,237.2Z"/><path class="cls-2" d="M125.4,206.1c10.1-24.6,14.9-51,18.2-77.4-14.3,25.2-39.3,42.4-65,55.9s-52.9,24-76.7,40.5L0,226.5v74.7c26.2-10.4,54.5-16.7,77.7-32.6S115.3,230.7,125.4,206.1Z"/><path class="cls-2" d="M103.3,126s-44.7,4.4-66.1,7A175.2,175.2,0,0,0,0,141.8v47.6c3.3-2.1,6.7-4.2,10-6.1C41.8,165.2,103.3,126,103.3,126Z"/><path class="cls-2" d="M146.2,70c8.1-6.8,14.3-14.7,16.7-25.2,1.7-7.1,2.5-14.7,3.6-21.7-15.8,30.5-50.6,42-81.6,50.4C57.2,81,28.5,81,0,80.7v29.9c34.1-3.4,68.8-6,101.2-17.7C116.5,87.4,133.3,80.9,146.2,70Z"/><path class="cls-2" d="M18.1,61c32.2-.9,66.8-10.5,85.8-36.5C78,37.5,47.3,37.6,18.9,32,12.6,30.8,6.3,29.2,0,27.8v33C6,61,12.1,61.1,18.1,61Z"/><path class="cls-2" d="M119.5,5.4A99.6,99.6,0,0,0,136.3,0H23.1l21,3.5C69.1,7.7,94.8,10.8,119.5,5.4Z"/><path class="cls-2" d="M177.2,960.8c-17.8,14.8-41.2,21.9-64.3,22.8s-46.2-4.2-68.1-11.5c-13.1-4.4-26-9.6-39.5-12L0,959.3v37.5c7.7.8,15.4,1.9,23.1,3.2H136.3C154.4,992.3,170.2,978.9,177.2,960.8Z"/><path class="cls-2" d="M948.1,962.8c-15.6,3.1-31.3,7.4-44.4,16.5-8.2,5.7-15,13.1-21.5,20.7h58.4a165.9,165.9,0,0,1,28.1-4.3,181.7,181.7,0,0,1,31.3,1.1V959.3C982.8,957.2,965.2,959.3,948.1,962.8Z"/><path class="cls-2" d="M970.2,80.6c-29.4.3-60.6,3.4-85.3,20.7-22.7,15.9-38.6,39.9-48.8,65.3,5.3-13.2,35.2-26.6,47.3-32.3,18.7-8.8,37.5-13.5,56.8-16.6,14.8-2.4,29.8-3.9,45.4-5.6l14.4-1.5V80.7C990,80.6,980.1,80.5,970.2,80.6Z"/><path class="cls-2" d="M852.1,86.8c20.2-17,42.9-26.5,69.6-28.6s52.2,1.6,78.3,2.6v-33A192.5,192.5,0,0,0,979.9,24C936.7,18.2,868.1,41.2,852.1,86.8Z"/><path class="cls-2" d="M856.5,38.6c8.6-5.9,16.9-11.5,26.2-16.2C901.1,13,920.5,4.8,940.6,0H882.2L878,5C870.1,14.4,858.6,26.2,856.5,38.6Z"/><path class="cls-2" d="M179.7,63.6c-7.9,32.1-9.4,67.6,6.1,96.9C187.3,101.4,224,53.5,244.5,0H198.4c-2.4,7.7-4.9,15.5-7.3,23.3C187,36.5,183.1,49.9,179.7,63.6Z"/><path class="cls-2" d="M240.9,89.2c-7.6,22.8-8.4,49.3,4.4,69.6-5.7-9.1,3.6-34.3,7-43.3,5.2-13.8,12.6-25.1,21.4-37C293.2,52.1,316.1,27.7,334,0H287.5c-4.5,8.8-9.2,17.2-13.7,25.2C261.9,46.1,248.4,66.4,240.9,89.2Z"/><path class="cls-2" d="M227,841.9c-3-2.8-14.8-9-15.8-12.3,19.8,61.1,4.6,114.9-12.8,170.4h46.1l1.2-3.2C265,944.4,272.2,883.4,227,841.9Z"/><path class="cls-2" d="M345,856.4c-19.9-35.2-56.3-58.3-96.9-59.9,17.9,6,30.3,22,41.1,37.5,8,11.6,15.7,23.5,20.8,36.6,16.3,42.5-1.6,89.4-22.5,129.4H334a210.1,210.1,0,0,0,14.6-26.3C366.2,935.9,365.7,893,345,856.4Z"/><path class="cls-2" d="M412.7,803.9c-15.6-24.8-30.4-50.5-55.8-66.7-57.8-36.9-138.9-18.8-173.2,40.9,21.6-10.7,44.1-20,67.9-23.7s49.1-1.3,70.2,10.3a107.4,107.4,0,0,1,20.5,14.9c10.3,9.4,19.4,20.5,28.2,31.5,15.7,19.4,27.4,41.9,44,60.6a87.6,87.6,0,0,0,127.7,4.2C484.6,887.1,441.5,849.6,412.7,803.9Z"/><path class="cls-2" d="M476.1,764.7c-19-23.9-39-49.3-67.5-60.4a85.2,85.2,0,0,0-60.7-.3c8.7-3.3,18.4.1,27.5,5.9s20.2,16.7,26.5,23c18.3,18.5,32.3,40.5,48.6,60.7,19.2,23.9,40.4,45.5,69.6,56.4,39.7,14.8,106.1,19.7,135.9-17.9,0,0-9,5-13.9,5.7C578.3,846.3,515.3,814.1,476.1,764.7Z"/><path class="cls-2" d="M679.3,774.4c-21,5-42.4,3.6-63.3-1.2a184.3,184.3,0,0,1-80.8-41.8c-28.3-25.4-50.7-60-86.4-72.9-13.9-5.1-28.9-6.4-43.7-6.4a133.6,133.6,0,0,0-25.3,2c-25,4.8-49.8,20.8-65.7,40.4,6.6-8.2,27.8-12.3,37.5-14.6a147.1,147.1,0,0,1,42.9-3.3c29.8,2.1,51.1,11.9,71,34.1q21,23.4,43.5,45.3c18.8,18.3,38.8,36,62.4,47.3s51.5,14.1,76.2,5.5c47.4-16.5,66.7-49.1,66.7-49.1S690.6,771.6,679.3,774.4Z"/><path class="cls-2" d="M890.6,704c43.7-37.2,71.3-100.6,42.2-155.3,5.4,13.3,1.2,28.7-5.7,41.3-17.7,32.3-50.3,54-77.2,77.9s-58.4,48.6-85.2,75.5q-5.4,5.4-10.8,11.1c-23,24.4-43.6,52-46.1,86.5-2,27.2,2.7,54.4,8.9,81-6.7-28.9,1.8-61.4,15.7-86.9,17.9-32.8,54.7-51.6,83.8-73.3C841.1,743.2,866.8,724.2,890.6,704Z"/><path class="cls-2" d="M962.3,542.5S1001,605.2,945.6,689c-30.4,46-82.2,70.7-125.9,102.2-20,14.5-41.2,26.5-47.8,52.2a62.1,62.1,0,0,0,1.7,36.7c4,11.3,12.2,18.7,17.4,29-11.7-23.3.2-46.1,16.5-64,25.7-28.1,61.4-44.9,92.9-65.4,40.1-26.2,86.5-74.5,99.6-125.3v-53c-3.6-12.4-10.1-24.4-20-36C973.7,558.1,962.3,542.5,962.3,542.5Z"/><path class="cls-2" d="M930.6,797.4c16.9-.6,33.2-6.5,47.8-14.9a193.1,193.1,0,0,0,21.6-14.4V729.4C981.7,757.3,959.9,779.5,930.6,797.4Z"/><path class="cls-2" d="M985.1,540.1c4-.6,9.9,6.6,14.9,14.2V541.7C994.8,540,989.7,539.3,985.1,540.1Z"/><path class="cls-2" d="M0,601.4v53C4.6,636.8,5.1,618.8,0,601.4Z"/><path class="cls-2" d="M55.9,693.8c15.3-43.4,10-103.2-26.6-135.1-7-6.1-18.3-13.6-29.3-17v12.6c4.3,6.4,7.9,13.1,9.5,15.6l1.3,2.2c26.3,45,22.9,100.5-3.2,145-2.5,4.2-5,8.3-7.6,12.3v38.7C25,748.9,45.5,723.6,55.9,693.8Z"/><path class="cls-2" d="M244,631.6a90,90,0,0,0,127.5-24.1c-13.3,6-28.3,7.6-42.8,5.9a80.8,80.8,0,0,1-29.5-9.3c-8.9-5-16.5-12-24.1-18.9-22.8-20.8-47.1-42.1-77.1-49.6-21.6-5.3-44.5-2.9-65.8,3.3-15,4.3-45.9,12-55.5,24.6,41.4,1.6,82.9-3.4,118.5,23C213,599.7,225.9,618.8,244,631.6Z"/><path class="cls-2" d="M298.5,661.7s-56.9,12.3-96.1-14.3c-26.7-18.1-46.1-49.6-77.3-60.8-17.2-6.1-34.1.7-51.8-1.2,23.9,2.6,39.2,23.5,53.3,40.7,18.9,23.3,34.1,49.8,64.2,58.5C256,703.4,298.5,661.7,298.5,661.7Z"/><path class="cls-2" d="M93,778.6c22.3-35.4,23.3-82.2,4.5-119.3-.8-1.5-1.6-3.1-2.5-4.6,6.1,25.1-2.6,51.4-15,74a207.7,207.7,0,0,1-62.9,70.5A168.6,168.6,0,0,1,0,809.5v39.2C36.3,832.8,71.6,812.6,93,778.6Z"/><path class="cls-2" d="M146,814.4c8.7-17.2,14.1-36.9,12.7-56.3a71.2,71.2,0,0,0-7.8-28.2c-5.2-9.8-13.2-17.3-20-26l-2-2.5s8.5,22,9.3,29.2c5,46.3-28.8,95.6-66.3,119.7C49.5,864.6,24.4,873.4,0,883.6v25.9c20-3.8,39.4-7.7,58.4-16.3C94.2,877,128,850,146,814.4Z"/><path class="cls-2" d="M177.6,836A117.4,117.4,0,0,1,155,871.8c-21.2,23.5-51.2,40.4-80.7,51.1A132.6,132.6,0,0,1,60.7,927a125.6,125.6,0,0,1-22.1,3.5l-19.5.7,15.2,7.2a125.8,125.8,0,0,0,16.4,6.3,104.1,104.1,0,0,0,19.9,3.7c40.6,4.1,88.1-11.8,106.4-50.9,12-25.7,6.4-83.6,6.4-83.6S180.4,828.9,177.6,836Z"/><path class="cls-2" d="M860.5,877.9a134.2,134.2,0,0,0-26.3,39.6c-7.5,17.5-10.1,36.7-12.7,55.5,10.8-29.8,34.2-53.6,60.8-70.9s56.4-28.7,85.9-40.4c10.4-4.1,21.2-8.4,31.8-13V809.5c-26,13.7-54.4,20.6-82.2,31.1C896,848.8,876.5,861,860.5,877.9Z"/><path class="cls-2" d="M953.9,908.7a112.7,112.7,0,0,0-14.8,14.5c-4,4.9-6.1,11-10.2,15.9,14.8-17.7,38.5-23.6,60.2-27.6l10.9-2V883.6l-10.1,4.3C977,893.6,964.9,899.8,953.9,908.7Z"/></pattern></defs><g id="Bg"><rect class="cls-3" width="1200" height="1200"/></g><g id="Pattern"><rect class="cls-4" width="1200" height="1200"/></g></svg>