<svg xmlns="http://www.w3.org/2000/svg" viewBox="0 0 453.8 457.9"><g style="isolation:isolate"><g id="Background_Complete" data-name="Background Complete"><path d="M126.9,445.2v-.9c0-.6,0-1.4-.1-2.5v-9.3H78.3c.1-.1-.3.2.2-.3h0v12.7l-.2-.2H78V432.5h0c.5-.5.2-.1.3-.2h48.8c-.1,4.1-.1,7.3-.1,9.6a17.8,17.8,0,0,1-.1,2.5v.8Z" transform="translate(-26.2 -21.2)" style="fill:#e0e0e0"/><path d="M133.5,432.3v-3.5c0-2.2,0-5.4-.1-9.3h-29l.2-.2h0v12.6l-.2-.2H104V419.7h0l.3-.3h29.4v.2c-.1,3.9-.1,7.2-.1,9.4a18.6,18.6,0,0,1-.1,2.6Z" transform="translate(-26.2 -21.2)" style="fill:#e0e0e0"/><rect x="71.3" y="17.8" width="48.7" height="12.87" style="fill:#ebebeb"/><path d="M125.6,65.4a.3.3,0,0,0-.1-.2V62c0-2.2-.1-5.4-.1-9.4H76.9c.1-.1-.2.3.3-.2h0V65.4l-.3-.2h-.2V52.8h0c.5-.5.1-.2.2-.3h48.8v.2c0,4,0,7.2-.1,9.5v3.3Z" transform="translate(-26.2 -21.2)" style="fill:#e0e0e0"/><path d="M449.9,75v-.2a2,2,0,0,0-.1-.7V71.6c0-2.3,0-5.5-.1-9.5l.2.2H401.2l.3-.3h0V75l-.3-.3,34.7.2H401V62.3h0l.2-.2H450c0,4.1,0,7.3-.1,9.5V75Z" transform="translate(-26.2 -21.2)" style="fill:#e0e0e0"/><path d="M456.5,62.1v-.2c0-.2-.1-.4-.1-.7V58.6c0-2.3-.1-5.4-.1-9.4l.2.2H427.2l.3-.3h0V62.1l-.3-.2H427V49.3h0c-.1.1.5-.4.2-.2h29.5c-.1,4-.1,7.2-.1,9.5s-.1,1.9-.1,2.6Z" transform="translate(-26.2 -21.2)" style="fill:#e0e0e0"/><path d="M75.2,195.5c-.1,0-.1-.1-.1-.2v-3.2c0-2.2-.1-5.4-.1-9.5l.2.2H26.5c.1-.1-.2.2.2-.3h0v12.7l-.2-.2H61.3l-34.8.2h-.2v-13h0c.4-.5.1-.1.2-.2H75.3c0,4.1-.1,7.3-.1,9.6v3.3Z" transform="translate(-26.2 -21.2)" style="fill:#e0e0e0"/><path d="M81.7,182.6v-3.5c-.1-2.2-.1-5.4-.1-9.3v.2H52.5c-.2.2.3-.3.3-.2h0v12.6l-.3-.2H81.7c.1.1-.1.1-.5.1H52.3V170h0c-.1,0,.4-.5.2-.3H81.9v.2c0,3.9,0,7.2-.1,9.4v2.6C81.8,182.4,81.8,182.7,81.7,182.6Z" transform="translate(-26.2 -21.2)" style="fill:#e0e0e0"/><path d="M399.7,383a29.8,29.8,0,0,0-12.9-4.5c-2.1-.2-4.4-.1-6,1.2a1.1,1.1,0,0,0-.7,1.1c.1.3.4.5.6.7,5.2,4,13.2,4.5,19,1.5" transform="translate(-26.2 -21.2)" style="fill:#e0e0e0"/><path d="M399.3,382.6a72.2,72.2,0,0,1-8.3-7.3,22,22,0,0,1-5.2-9.6,3.9,3.9,0,0,1,.5-3.2c6.6,5.1,11.8,11.8,13,20.1" transform="translate(-26.2 -21.2)" style="fill:#e0e0e0"/><path d="M399.6,382.9a28.6,28.6,0,0,1,.2-10.9,14.7,14.7,0,0,1,5.8-9c1.1,2.7.6,5.8-.2,8.6a41.9,41.9,0,0,1-5.7,12.1" transform="translate(-26.2 -21.2)" style="fill:#e0e0e0"/><path d="M406.1,394.5a20.4,20.4,0,0,0-16.2,15.4c3.9-.3,7.1-3,9.5-6.1s4-6.4,6.6-9.2" transform="translate(-26.2 -21.2)" style="fill:#e0e0e0"/><path d="M407.5,396.4a25.4,25.4,0,0,1,2.9-24,30.5,30.5,0,0,1-2.9,24" transform="translate(-26.2 -21.2)" style="fill:#e0e0e0"/><path d="M416.1,406.6a18.5,18.5,0,0,0-10.3,2.4,18.7,18.7,0,0,0-7.3,7.7,1.4,1.4,0,0,0-.1,1.4c.2.3.7.3,1.1.3,3.5-.2,6.6-2.3,9.1-4.7s4.7-5.1,7.5-7.1" transform="translate(-26.2 -21.2)" style="fill:#e0e0e0"/><path d="M415.8,406a31.4,31.4,0,0,1-.3-18.2c.6-2.4,1.7-4.9,3.9-6a.6.6,0,0,1,.6-.1l.3.5a10.3,10.3,0,0,1,.9,5.2,24.3,24.3,0,0,1-.8,5.3c-.7,3.2-1,6.7-2.8,9.5a21.2,21.2,0,0,0-1.1,2.1c-.4.7-.4,1-.7,1.5" transform="translate(-26.2 -21.2)" style="fill:#e0e0e0"/><path d="M438.5,409.4c-1.7-6.4.1-14.1,4.1-19.4.3-.4.7-.8,1.2-.7s.9,1,.9,1.8a35.5,35.5,0,0,1-6.2,18.3" transform="translate(-26.2 -21.2)" style="fill:#e0e0e0"/><path d="M440.5,410.8a28,28,0,0,0,23.1-4.7,18.6,18.6,0,0,0-12.5-1.5,17.5,17.5,0,0,0-10.6,6.2" transform="translate(-26.2 -21.2)" style="fill:#e0e0e0"/><path d="M442.2,406.5a27,27,0,0,1,21-12.1,12.9,12.9,0,0,1-6.9,7.6,34.8,34.8,0,0,1-10,2.9c-1.4.3-3.2.6-4.1,1.6" transform="translate(-26.2 -21.2)" style="fill:#e0e0e0"/><path d="M438.9,385.9a64.3,64.3,0,0,0,2.7-12.3,20.3,20.3,0,0,0-2.5-12.1c-4,7.8-4.5,17-.3,24.8" transform="translate(-26.2 -21.2)" style="fill:#e0e0e0"/><path d="M452.6,379c4.7-8.6,14.4-15.5,24.2-16.5-3.8,9.4-14.1,16.7-24.2,16.5" transform="translate(-26.2 -21.2)" style="fill:#e0e0e0"/><path d="M449.6,380.7c7,1.1,13.1,5.6,19.7,8.3a8.7,8.7,0,0,0,4.5.9,3.8,3.8,0,0,0,3.3-2.7,3.8,3.8,0,0,0-1.2-3.5,8.7,8.7,0,0,0-3.2-2c-7.2-3-14.9-3-22.5-1.2" transform="translate(-26.2 -21.2)" style="fill:#e0e0e0"/><path d="M445.5,385.7c1.6.4,2.1,1.2,3.4,2.3a37,37,0,0,0,15,7.7c.5.2,1.3.2,1.6-.3a1.5,1.5,0,0,0-.4-1.4,19.6,19.6,0,0,0-9.1-6.1c-3.4-1.3-6.4-2.9-10.5-2.5" transform="translate(-26.2 -21.2)" style="fill:#e0e0e0"/><path d="M440.8,355.7a28.5,28.5,0,0,0,21.8,7.3c.3,0,.7,0,.9-.3s-.1-1.5-.7-2c-6.4-5-14.1-7.1-22-5" transform="translate(-26.2 -21.2)" style="fill:#e0e0e0"/><path d="M446.3,353.6a30.2,30.2,0,0,1,27.1-4.4,21.1,21.1,0,0,1-12.9,5.6,40.1,40.1,0,0,1-14.2-1.2" transform="translate(-26.2 -21.2)" style="fill:#e0e0e0"/><path d="M444.1,339.9c-.6-6.4-.2-11.4-.6-17.8,0-.5-.2-1.2-.6-1.3s-1.3.5-1.5,1.2a20.5,20.5,0,0,0,2.7,17.7" transform="translate(-26.2 -21.2)" style="fill:#e0e0e0"/><path d="M443.7,340.6a38.1,38.1,0,0,0,10.5-10.3c2.1-2.8,3.9-6.3,3.4-9.8a10.4,10.4,0,0,0-7.6,3.8,22,22,0,0,0-3.9,7.8c-.8,2.8-1.4,5.7-2.4,8.5" transform="translate(-26.2 -21.2)" style="fill:#e0e0e0"/><path d="M454.1,337.7A84.8,84.8,0,0,0,480,322.4c-3.1-1.3-6.6-.5-9.7.7a31.1,31.1,0,0,0-16.4,14.5" transform="translate(-26.2 -21.2)" style="fill:#e0e0e0"/><path d="M446.6,344.1a53.4,53.4,0,0,0,14.4,0c4.7-.8,9.1-2.6,13.5-4.4a2.2,2.2,0,0,0,.9-.7,1.1,1.1,0,0,0-.3-1.2,2.6,2.6,0,0,0-1.2-.5c-4.7-1.4-9.8-.7-14.5.8a67.8,67.8,0,0,0-12.8,6" transform="translate(-26.2 -21.2)" style="fill:#e0e0e0"/><path d="M419.2,355.9a25.9,25.9,0,0,1-.2-21.1c2,3,2.2,6.9,1.9,10.5s-1.5,7.3-1.6,10.9" transform="translate(-26.2 -21.2)" style="fill:#e0e0e0"/><path d="M406.2,349.3a29.2,29.2,0,0,0-21.9,9.3,20.8,20.8,0,0,0,12-2.2,58.9,58.9,0,0,0,10.2-6.9" transform="translate(-26.2 -21.2)" style="fill:#e0e0e0"/><path d="M397.4,346.3c-4-.3-7.9-.8-11.7.4a14.3,14.3,0,0,0-8.9,7.6,21.7,21.7,0,0,0,10.9-2.1,59.8,59.8,0,0,0,9.7-5.9" transform="translate(-26.2 -21.2)" style="fill:#e0e0e0"/><path d="M410.4,346.5c-3.6-2.4-7.3-4.8-11.5-5.8s-9-.2-11.9,2.9c3.3,2,7.5,2.3,11.4,2.3s8.7-.1,12.4,1.2" transform="translate(-26.2 -21.2)" style="fill:#e0e0e0"/><path d="M410.4,346.7c-6.1-6.1-8.5-16.9-6-25.2a38.6,38.6,0,0,1,6,25.2" transform="translate(-26.2 -21.2)" style="fill:#e0e0e0"/><path d="M427.3,329.6c1.2-2.7,2-5.6,3-8.3a24.9,24.9,0,0,1,4.3-7.6,11.6,11.6,0,0,1,7.6-4,30.5,30.5,0,0,1-14.7,19.9" transform="translate(-26.2 -21.2)" style="fill:#e0e0e0"/><path d="M424.2,333.1c-1.9-2.6-4.1-6.2-6.7-8.2s-6-3.1-9.2-2.4a21.4,21.4,0,0,0,15.9,10.6" transform="translate(-26.2 -21.2)" style="fill:#e0e0e0"/><path d="M424.9,329.8a42.9,42.9,0,0,1-3.1-9.8,15.1,15.1,0,0,1,1.6-10c3.3,6.4,4.4,13.2,1.6,19.9" transform="translate(-26.2 -21.2)" style="fill:#e0e0e0"/><path d="M427.3,310c1.9-6.3,7.7-11,14-13.1a5.1,5.1,0,0,1,2.4-.4,2,2,0,0,1,1.8,1.5c.3,1.1-.6,2.1-1.5,2.8a47.9,47.9,0,0,1-16.7,9.2" transform="translate(-26.2 -21.2)" style="fill:#e0e0e0"/><path d="M427.4,304.8a43.6,43.6,0,0,1,1.8-12c1.3-3.9,3.9-7.5,7.6-9.2.7,4.1-1.2,8.2-3.4,11.7s-4.8,6.9-6.1,10.9" transform="translate(-26.2 -21.2)" style="fill:#e0e0e0"/><path d="M427.3,307.6c-1.6-4.6-1.7-10.4-4.5-14.4s-5-4.8-6.7-7.7a11.9,11.9,0,0,0,.4,8.7,26.6,26.6,0,0,0,5.1,7.3c2.1,2.2,3.8,3.8,5.7,6.1" transform="translate(-26.2 -21.2)" style="fill:#e0e0e0"/><path d="M427.3,443.3c-.1,0-.2-30.7-.2-68.6s.1-68.7.2-68.7.2,30.7.2,68.7S427.5,443.3,427.3,443.3Z" transform="translate(-26.2 -21.2)" style="fill:#e0e0e0"/><path d="M454.2,351.2c0,.1-.4.2-1.2.5l-3.1,1c-2.7,1-6.4,2.3-10.4,3.9s-7.7,3.1-9.8,4.9a7,7,0,0,0-2,2.6,12.6,12.6,0,0,0-.4,1.2V365a5.1,5.1,0,0,1,.2-.9,7.3,7.3,0,0,1,2-2.8,15.1,15.1,0,0,1,4.2-2.6l5.6-2.5c4-1.6,7.7-2.9,10.5-3.8l3.2-.9Z" transform="translate(-26.2 -21.2)" style="fill:#e0e0e0"/><path d="M463,329.6l-.3.4-1,.9-3.7,3.3-12.3,10.9c-4.7,4.3-8.9,8.4-11.7,11.4l-3.4,3.7a4.5,4.5,0,0,1-.9,1l-.3.4.3-.4.8-1.1,3.2-3.8c2.8-3.1,7-7.2,11.7-11.5L457.8,334l3.8-3.2,1-.9Z" transform="translate(-26.2 -21.2)" style="fill:#e0e0e0"/><path d="M440.6,349.5c-.1-.1.9-2.4,1.9-5.3s1.4-5.4,1.6-5.4a19.4,19.4,0,0,1-1.2,5.5,39.6,39.6,0,0,1-1.5,3.7Z" transform="translate(-26.2 -21.2)" style="fill:#e0e0e0"/><path d="M427.4,368.1c-.1,0-.3-.3-.8-.9l-1.9-2.4c-1.6-2.1-3.7-4.9-6.2-8l-6.4-7.9-1.9-2.4-.7-.9c.1,0,.4.3.8.8l2.1,2.3c1.7,2,4,4.7,6.4,7.8s4.7,6,6.2,8.1,1.4,1.9,1.8,2.5Z" transform="translate(-26.2 -21.2)" style="fill:#e0e0e0"/><path d="M421.5,360.5a10,10,0,0,1-2.5-4.6,15.9,15.9,0,0,1-.6-4.7h.2a1.2,1.2,0,0,1-.1.5c-.1,0-.1-.2-.1-.6h.2a23.1,23.1,0,0,0,.8,4.6A31.1,31.1,0,0,0,421.5,360.5Z" transform="translate(-26.2 -21.2)" style="fill:#e0e0e0"/><path d="M413.9,350.9c-.1.1-.6-.5-1.8-1a11.3,11.3,0,0,0-4.7-.3,26,26,0,0,0-4.8.7l-2,.5a7.9,7.9,0,0,1,1.9-.8,34.7,34.7,0,0,1,4.8-.9,10.7,10.7,0,0,1,5,.6A3.3,3.3,0,0,1,413.9,350.9Z" transform="translate(-26.2 -21.2)" style="fill:#e0e0e0"/><path d="M412.1,348.6c-.1.1-1-.4-2.7-.9a24.3,24.3,0,0,0-6.6-1.4,22.9,22.9,0,0,0-6.7.4,23.2,23.2,0,0,1-2.7.5l.7-.3,2-.6a27.5,27.5,0,0,1,6.8-.4,20.8,20.8,0,0,1,6.6,1.5l1.9.8Z" transform="translate(-26.2 -21.2)" style="fill:#e0e0e0"/><path d="M427.3,338.8a45,45,0,0,1-1.9-6.7,48.9,48.9,0,0,1-1.5-6.7,45.8,45.8,0,0,1,1.9,6.6A51.9,51.9,0,0,1,427.3,338.8Z" transform="translate(-26.2 -21.2)" style="fill:#e0e0e0"/><path d="M427.4,338.8a43.5,43.5,0,0,0-2.1-4,17.5,17.5,0,0,0-3.1-3.2c0-.1.5.1,1.2.6a10.7,10.7,0,0,1,2.3,2.4A8.3,8.3,0,0,1,427.4,338.8Z" transform="translate(-26.2 -21.2)" style="fill:#e0e0e0"/><path d="M427.3,426.9a14.7,14.7,0,0,0-.5-2,24.8,24.8,0,0,0-2-5.4,73.8,73.8,0,0,0-10.9-15.3c-2.4-2.8-4.8-5.4-6.8-7.9a56.9,56.9,0,0,1-4.9-7,30.7,30.7,0,0,1-2.4-5.2c-.2-.7-.4-1.2-.5-1.5v-.5c0-.1.2.7.8,1.9a38.2,38.2,0,0,0,2.5,5.1,56.6,56.6,0,0,0,4.9,6.9c2,2.5,4.4,5.1,6.8,7.9a68.4,68.4,0,0,1,10.9,15.5,29.7,29.7,0,0,1,1.9,5.4,6.1,6.1,0,0,1,.3,1.6Z" transform="translate(-26.2 -21.2)" style="fill:#e0e0e0"/><path d="M451.6,399.5l-1.3.7-3.3,2.2a36.1,36.1,0,0,0-4.3,3.9c-1.5,1.6-3.1,3.5-4.7,5.5-3.2,4-6.2,7.6-8,10.4s-1.5,2.6-2,3.4-.6,1.3-.7,1.3a.6.6,0,0,0,.1-.4,8.9,8.9,0,0,0,.5-1c.4-.8,1-2,1.9-3.5s4.7-6.5,7.9-10.5c1.6-2,3.2-3.8,4.7-5.4a48.4,48.4,0,0,1,4.4-4,23.8,23.8,0,0,1,3.4-2l1-.5Z" transform="translate(-26.2 -21.2)" style="fill:#e0e0e0"/><path d="M452.1,408.4a14.8,14.8,0,0,1-2.7.4A38.7,38.7,0,0,0,443,410a20,20,0,0,0-5.7,3c-1.3,1-1.9,1.9-2,1.8l.4-.6a9.2,9.2,0,0,1,1.4-1.4,17.3,17.3,0,0,1,5.8-3.2,25.2,25.2,0,0,1,6.5-1.1A8.2,8.2,0,0,1,452.1,408.4Z" transform="translate(-26.2 -21.2)" style="fill:#e0e0e0"/><path d="M436.1,413.9c-.2-.1,1.1-2,2-4.5s1.1-4.7,1.2-4.6.1.5,0,1.4a13.6,13.6,0,0,1-.8,3.4,22.7,22.7,0,0,1-1.5,3.1A7.3,7.3,0,0,1,436.1,413.9Z" transform="translate(-26.2 -21.2)" style="fill:#e0e0e0"/><path d="M459.5,375.6l-.5.3-1.2.5-2,1-2.6,1.3a7.1,7.1,0,0,1-1.5.8l-1.5,1-3.3,2.3a63.5,63.5,0,0,0-7,6.1,69.8,69.8,0,0,0-5.8,7.1c-.8,1.2-1.6,2.3-2.2,3.4L431,401l-.8,1.5-1.2,2.6-.9,2-.5,1.3c-.2.3-.2.5-.3.5l.2-.5a9.3,9.3,0,0,1,.4-1.3l.8-2.1c.4-.8.7-1.7,1.2-2.6l.8-1.5.9-1.6a33.7,33.7,0,0,1,2.2-3.5,59.1,59.1,0,0,1,5.8-7.2,54.5,54.5,0,0,1,7-6.1l3.4-2.3,1.6-.9,1.5-.9,2.6-1.3,2-.8,1.3-.5Z" transform="translate(-26.2 -21.2)" style="fill:#e0e0e0"/><path d="M440.3,388.5c-.1,0,.1-.8,1-1.6a6.5,6.5,0,0,1,4.3-1.6,9,9,0,0,1,4.4.9c1.1.4,1.8.7,1.7.8l-1.8-.5a12.7,12.7,0,0,0-4.3-.8,6.9,6.9,0,0,0-4.1,1.5A4.4,4.4,0,0,0,440.3,388.5Z" transform="translate(-26.2 -21.2)" style="fill:#e0e0e0"/><path d="M437.4,391.5a19.7,19.7,0,0,0,1.2-4,13.8,13.8,0,0,0-.3-4.1c.1,0,.3.4.5,1.2a7,7,0,0,1,.2,3,7.1,7.1,0,0,1-.9,2.9A4.2,4.2,0,0,1,437.4,391.5Z" transform="translate(-26.2 -21.2)" style="fill:#e0e0e0"/><path d="M406.1,431.3c.7,11.8,4.2,23.7,9.7,35.8h23.6c5.2-12,8.5-23.9,9.1-35.8Z" transform="translate(-26.2 -21.2)" style="fill:#e0e0e0"/><path d="M444.7,450.3c0,.1-7.8.2-17.4.2s-17.5-.1-17.5-.2,7.8-.2,17.5-.2S444.7,450.2,444.7,450.3Z" transform="translate(-26.2 -21.2)" style="fill:#fafafa"/><path d="M444.1,454.6c0,.1-7.3.2-16.3.2s-16.3-.1-16.3-.2,7.3-.3,16.3-.3S444.1,454.4,444.1,454.6Z" transform="translate(-26.2 -21.2)" style="fill:#fafafa"/><path d="M416.1,439c.2,0,.3,2.5.3,5.5s-.1,5.4-.3,5.4a38.2,38.2,0,0,1-.2-5.4A40.3,40.3,0,0,1,416.1,439Z" transform="translate(-26.2 -21.2)" style="fill:#fafafa"/><path d="M428.8,439a42.1,42.1,0,0,1,.2,5.7,41.2,41.2,0,0,1-.2,5.6,41.2,41.2,0,0,1-.2-5.6A42.1,42.1,0,0,1,428.8,439Z" transform="translate(-26.2 -21.2)" style="fill:#fafafa"/><path d="M440.7,438.9a44.4,44.4,0,0,1,.2,5.8,42.1,42.1,0,0,1-.2,5.7,42.1,42.1,0,0,1-.2-5.7A44.4,44.4,0,0,1,440.7,438.9Z" transform="translate(-26.2 -21.2)" style="fill:#fafafa"/><path d="M447.7,439c0,.1-9.1.2-20.4.2s-20.4-.1-20.4-.2,9.2-.2,20.4-.2S447.7,438.9,447.7,439Z" transform="translate(-26.2 -21.2)" style="fill:#fafafa"/></g><g id="Floor"><path d="M464.8,467.1c0,.1-98,.2-218.8.2s-218.8-.1-218.8-.2,98-.3,218.8-.3S464.8,466.9,464.8,467.1Z" transform="translate(-26.2 -21.2)" style="fill:#263238"/></g><g id="Door"><rect x="150.9" y="60.9" width="190.8" height="384.91" style="fill:#455a64"/><path d="M367.9,82.2c0,2.2.1,160.3.3,384.9v.2H176.9V82h.2l190.8.2-190.8.2.2-.2c0,100.8.1,236.2.1,384.9l-.3-.3H367.9l-.2.3C367.8,242.5,367.9,84.4,367.9,82.2Z" transform="translate(-26.2 -21.2)" style="fill:#263238"/><rect x="168.8" y="78.6" width="155.8" height="367.24" style="fill:#e0e0e0"/><polygon points="168.8 445.8 291.9 424 291.9 78.6 168.8 78.6 168.8 445.8" style="fill:#f5f5f5"/><polygon points="170.6 445.8 279.7 424 324.6 424 324.6 445.8 170.6 445.8" style="fill:#f5f5f5"/><path d="M208.5,289.2h0a2.5,2.5,0,0,1-2.4-2.5V256.5a2.4,2.4,0,0,1,2.4-2.4h0a2.4,2.4,0,0,1,2.5,2.4v30.2A2.5,2.5,0,0,1,208.5,289.2Z" transform="translate(-26.2 -21.2)" style="fill:#e0e0e0"/><path d="M311.5,289.2h0a2.4,2.4,0,0,1-2.4-2.5V256.5a2.3,2.3,0,0,1,2.4-2.4h0a2.4,2.4,0,0,1,2.4,2.4v30.2A2.5,2.5,0,0,1,311.5,289.2Z" transform="translate(-26.2 -21.2)" style="fill:#e0e0e0"/><polygon points="287 266.1 180.9 266.1 180.9 245.1 183.9 245.1 183.9 263.1 284 263.1 284 245.1 287 245.1 287 266.1" style="fill:#fff"/><path d="M318.1,99.8v4.8c0,3.1.1,7.7.1,13.6,0,11.9,0,29.1.1,50.3V445.4h-.2l-87.8,15.7-24.7,4.4-6.6,1.1-1.6.3h0l1.6-.4,6.5-1.2,24.7-4.5L318,445v.2c-.1-32.6-.1-70.6-.1-111.1,0-64.6.1-123.2.1-165.6,0-21.2.1-38.4.1-50.3V104.6a35.5,35.5,0,0,1,.1-3.6Z" transform="translate(-26.2 -21.2)" style="fill:#263238"/><path d="M350.8,467.1c0-2.4-.1-154.1-.3-367.3l.3.3H195l.3-.3c0,143.3-.1,273-.1,367.3l-.2-.2,155.8.2-155.8.2h-.2V99.6H351v.2C350.9,313,350.8,464.7,350.8,467.1Z" transform="translate(-26.2 -21.2)" style="fill:#263238"/><path d="M177.1,82.2c.1-.1,4.2,3.7,9.2,8.6s8.8,8.9,8.7,9-4.2-3.7-9.1-8.6S177,82.3,177.1,82.2Z" transform="translate(-26.2 -21.2)" style="fill:#263238"/><path d="M367.6,82.3c.1.1-3.6,4.1-8.2,9s-8.5,8.6-8.6,8.5,3.6-4.1,8.2-8.9S367.5,82.2,367.6,82.3Z" transform="translate(-26.2 -21.2)" style="fill:#263238"/></g><g id="Exit_Signal" data-name="Exit Signal"><rect x="192.9" y="0.3" width="97.3" height="48.78" rx="6.5" style="fill:#fff"/><path d="M310,70.3a8.5,8.5,0,0,0,2.7-.7,7.3,7.3,0,0,0,2.6-2.2,9.3,9.3,0,0,0,.8-2,10.1,10.1,0,0,0,.2-2.5c0-7.1,0-17.4-.1-30.1V27.9a6.3,6.3,0,0,0-1.9-4.4,6.2,6.2,0,0,0-4.7-1.8H225.5a5.9,5.9,0,0,0-5.5,3.5,6.2,6.2,0,0,0-.7,3.3V62.9a8.1,8.1,0,0,0,.1,1.6,4,4,0,0,0,.3,1.5,6.1,6.1,0,0,0,4.5,3.9,28.3,28.3,0,0,0,3,.2h0a16.1,16.1,0,0,1-3.1-.1,6.6,6.6,0,0,1-4.8-4.2,4.7,4.7,0,0,1-.4-1.6,9.7,9.7,0,0,1-.1-1.7V28.6a7.7,7.7,0,0,1,.7-3.6,6.9,6.9,0,0,1,6-3.8h84.1a6.7,6.7,0,0,1,7,6.6v4.9c0,12.7-.1,23-.1,30.1a9.7,9.7,0,0,1-.2,2.5,6.7,6.7,0,0,1-.9,2.1,7.3,7.3,0,0,1-2.6,2.2,8.7,8.7,0,0,1-2.1.6Z" transform="translate(-26.2 -21.2)" style="fill:#263238"/><rect x="197.4" y="4.6" width="88.3" height="40.11" rx="2.1" style="fill:#457745"/><path d="M245.5,51.8v2.9H234V39.4h11.2v2.9h-7.8v3.3h6.9v2.7h-6.9v3.5Z" transform="translate(-26.2 -21.2)" style="fill:#fff"/><path d="M257.5,54.7l-3.6-5.3-3.5,5.3h-4l5.5-7.8-5.2-7.5h3.9l3.4,5,3.4-5h3.7l-5.2,7.4,5.6,7.9Z" transform="translate(-26.2 -21.2)" style="fill:#fff"/><path d="M262.8,39.4h3.5V54.7h-3.5Z" transform="translate(-26.2 -21.2)" style="fill:#fff"/><path d="M272.9,42.3h-4.8V39.4h13v2.9h-4.7V54.7h-3.5Z" transform="translate(-26.2 -21.2)" style="fill:#fff"/><polygon points="261.5 26.8 261.5 22.8 272.5 22.8 267 17.3 273.1 17.3 280.6 24.8 272.9 32.5 267.3 32.5 272.5 27.1 261.5 26.8" style="fill:#fff"/></g><g id="Lines"><path d="M142,175.9c0,.2-12.2.3-27.2.3s-27.3-.1-27.3-.3,12.2-.2,27.3-.2S142,175.8,142,175.9Z" transform="translate(-26.2 -21.2)" style="fill:#263238"/><path d="M114.8,179.7c0,.2-8.8.3-19.7.3s-19.6-.1-19.6-.3,8.8-.2,19.6-.2S114.8,179.6,114.8,179.7Z" transform="translate(-26.2 -21.2)" style="fill:#263238"/><path d="M79.7,346.7c0,.2-8.4.3-18.8.3s-18.8-.1-18.8-.3,8.4-.3,18.8-.3S79.7,346.6,79.7,346.7Z" transform="translate(-26.2 -21.2)" style="fill:#263238"/><path d="M80.8,340.2c0,.1-5.8.2-12.8.2s-12.9-.1-12.9-.2,5.8-.3,12.9-.3S80.8,340,80.8,340.2Z" transform="translate(-26.2 -21.2)" style="fill:#263238"/></g><g id="Fire_Extinguisher" data-name="Fire Extinguisher"><rect x="356.3" y="89.8" width="76.7" height="143.62" style="fill:#457745"/><path d="M459.2,254.7H382.5V111h76.7Zm-76.7-.1h76.7V111.1H382.5Z" transform="translate(-26.2 -21.2)" style="fill:#263238"/><rect x="365" y="100.4" width="58.6" height="123.38" style="fill:#ebebeb"/><path d="M449.7,245v-9.2c0-6-.1-14.7-.1-25.6,0-21.8-.1-52.7-.1-88.6l.2.3H391.2l.2-.3V245l-.2-.2H391V245c0-32.1-.1-75.6-.1-123.4v-.2H450v.2c-.1,36-.1,66.9-.1,88.8-.1,10.9-.1,19.5-.1,25.5v8.5A2.8,2.8,0,0,0,449.7,245Z" transform="translate(-26.2 -21.2)" style="fill:#263238"/><polygon points="402 120.5 402 122.3 397.6 122.3 402 120.5" style="fill:#457745"/><rect x="398.5" y="123.9" width="3.4" height="4.69" style="fill:#e0e0e0"/><rect x="396.6" y="123.9" width="1.9" height="2.03" style="fill:#e0e0e0"/><rect x="402" y="125.2" width="1.9" height="2.03" style="fill:#e0e0e0"/><rect x="394.6" y="123.3" width="2" height="3.17" style="fill:#e0e0e0"/><rect x="393.8" y="123.9" width="0.8" height="2.03" style="fill:#263238"/><rect x="392.4" y="123.5" width="1.4" height="2.88" style="fill:#263238"/><path d="M439.4,143.5H423.8v1.7h17.4A1.7,1.7,0,0,0,439.4,143.5Z" transform="translate(-26.2 -21.2)" style="fill:#457745"/><path d="M426.5,153.1c-6.9,0-12.4,5-12.4,11.2v70.5h24.7V164.3C438.8,158.1,433.3,153.1,426.5,153.1Z" transform="translate(-26.2 -21.2)" style="fill:#457745"/><rect x="392.9" y="148.7" width="14.7" height="35.35" style="fill:#fff"/><g style="opacity:0.30000000000000004;mix-blend-mode:screen"><path d="M426.5,158.2v-2.6c-5.3,0-9.7,3.9-9.7,8.7h2.9C419.7,160.9,422.7,158.2,426.5,158.2Z" transform="translate(-26.2 -21.2)" style="fill:#fff"/></g><polygon points="385 213.5 370.2 213.5 374.5 184 380.7 184 385 213.5" style="fill:#263238"/><rect x="375.7" y="181.2" width="3.8" height="2.87" style="fill:#263238"/><path d="M437.4,136.3,423.1,142l.7,1.5,16-6.3A1.8,1.8,0,0,0,437.4,136.3Z" transform="translate(-26.2 -21.2)" style="fill:#457745"/><rect x="397.8" y="128.6" width="5" height="3.49" style="fill:#457745"/><path d="M402.9,159.5v42.9h1.9V159.5c0-6.9,6.1-12.5,13.7-12.5v-1.7C409.9,145.3,402.9,151.7,402.9,159.5Z" transform="translate(-26.2 -21.2)" style="fill:#263238"/><path d="M438.8,229c0,.1-5.5.2-12.3.2s-12.4-.1-12.4-.2,5.5-.3,12.4-.3S438.8,228.8,438.8,229Z" transform="translate(-26.2 -21.2)" style="fill:#263238"/><path d="M438.8,224.4c0,.1-5.5.2-12.3.2s-12.4-.1-12.4-.2,5.5-.3,12.4-.3S438.8,224.2,438.8,224.4Z" transform="translate(-26.2 -21.2)" style="fill:#263238"/><path d="M444,146.5c.1.1-9.7,10.4-21.9,23s-22.1,22.7-22.2,22.6,9.7-10.4,21.8-23S443.9,146.4,444,146.5Z" transform="translate(-26.2 -21.2)" style="fill:#fff"/><path d="M433.7,149.6c.1.1-5.5,5.5-12.4,12.1s-12.7,11.8-12.8,11.7,5.4-5.5,12.4-12.1S433.6,149.5,433.7,149.6Z" transform="translate(-26.2 -21.2)" style="fill:#fff"/><path d="M454.7,249.4h-18l-49.2.4h-.2v-.2c0-35,0-81.7-.1-133v-.5H455v.2c-.1,38.8-.1,72.1-.1,95.6-.1,11.8-.1,21.1-.1,27.5v9.1a1.7,1.7,0,0,1-.1.7v-9.9c0-6.4-.1-15.8-.1-27.5,0-23.5,0-56.7-.1-95.5l.2.2H387.5l.3-.3v.2c-.1,51.3-.1,98-.1,133l-.2-.2h67.2Z" transform="translate(-26.2 -21.2)" style="fill:#263238"/><rect x="359.8" y="118.6" width="3.1" height="13.23" style="fill:#263238"/><rect x="359.8" y="187.6" width="3.1" height="13.23" style="fill:#263238"/><path d="M391,121.7a7.3,7.3,0,0,1-1.9-2.3,8.6,8.6,0,0,1-1.6-2.6,8.4,8.4,0,0,1,2,2.3C390.5,120.5,391.2,121.6,391,121.7Z" transform="translate(-26.2 -21.2)" style="fill:#263238"/><path d="M454.8,116.6a14.1,14.1,0,0,1-2.4,2.7,18.9,18.9,0,0,1-2.8,2.3,14.1,14.1,0,0,1,2.4-2.7A13.4,13.4,0,0,1,454.8,116.6Z" transform="translate(-26.2 -21.2)" style="fill:#263238"/><path d="M454.7,249.4a16.5,16.5,0,0,1-2.6-2,11.4,11.4,0,0,1-2.4-2.4,11.7,11.7,0,0,1,2.7,2A9.6,9.6,0,0,1,454.7,249.4Z" transform="translate(-26.2 -21.2)" style="fill:#263238"/><path d="M391,245.1a8.6,8.6,0,0,1-1.5,2.4c-1,1.2-1.9,2.2-2,2.1a7.7,7.7,0,0,1,1.6-2.4C390,245.9,390.9,245,391,245.1Z" transform="translate(-26.2 -21.2)" style="fill:#263238"/></g><g id="Speech_Bubble" data-name="Speech Bubble"><path d="M130.3,144.3l-9.2,1.1a28.2,28.2,0,0,1-12.2,9.5,28.4,28.4,0,1,1,15.7-37,29.2,29.2,0,0,1,1,18.4h0Z" transform="translate(-26.2 -21.2)" style="fill:#fff"/><path d="M130.3,144.3l-.3-.5-.9-1.5-3.4-6.1h0a28.2,28.2,0,0,0,.4-14.1,27.5,27.5,0,0,0-3.4-8.5,28.8,28.8,0,0,0-29.4-13.5,28.8,28.8,0,0,0-12.1,5.2,28.3,28.3,0,0,0-8.8,10.5,30.4,30.4,0,0,0-2.3,6.6,30.7,30.7,0,0,0-.6,6.8A28.9,28.9,0,0,0,72.8,142a28.2,28.2,0,0,0,8,9.4,29.5,29.5,0,0,0,10.3,4.9,28.8,28.8,0,0,0,19.3-1.8,29.5,29.5,0,0,0,10.8-9h-.1l6.9-.9,1.7-.3h0l-1.8.2-6.8.7H121a28.6,28.6,0,0,1-29.7,10.5A30.9,30.9,0,0,1,81.1,151a29.6,29.6,0,0,1-7.8-9.3,28.9,28.9,0,0,1-3.2-12.4,29.8,29.8,0,0,1,.6-6.7,26.6,26.6,0,0,1,2.3-6.5,28,28,0,0,1,20.4-15.3,28.9,28.9,0,0,1,12.1.5,29.4,29.4,0,0,1,10,5,28.9,28.9,0,0,1,10.3,16,30.1,30.1,0,0,1-.3,13.9.1.1,0,0,0,0,.2h0l3.5,5.9.9,1.6Z" transform="translate(-26.2 -21.2)" style="fill:#263238"/><path d="M102.8,115.9l-1.5,14.6a2.3,2.3,0,0,1-2.3,2.1h0a2.4,2.4,0,0,1-2.5-2.2l-1-14.8a1.9,1.9,0,0,1,2-2l3.5.2A1.9,1.9,0,0,1,102.8,115.9Z" transform="translate(-26.2 -21.2)" style="fill:#457745"/><path d="M94.8,140.7a3.5,3.5,0,1,0,6.8-2,3.5,3.5,0,1,0-6.8,2Z" transform="translate(-26.2 -21.2)" style="fill:#457745"/></g><g id="Character"><path d="M147,423.3l-16.4,25L169.5,471c2-3.8-13.8-23.1-13.8-23.1l8.6-13.6Z" transform="translate(-26.2 -21.2)" style="fill:#263238"/><path d="M144.6,439.2a1.8,1.8,0,0,0-2.1,1.2,1.7,1.7,0,0,0,1.1,2.1,1.9,1.9,0,0,0,2.3-1.2c.2-.9-.5-2.1-1.4-2.1" transform="translate(-26.2 -21.2)" style="fill:#e0e0e0"/><path d="M130.6,448.3l1.9-3.3,36.6,23.3s1.3,1.7.3,2.8Z" transform="translate(-26.2 -21.2)" style="fill:#e0e0e0"/><path d="M156.4,448.1c-.1.2-1.1-.3-2.4-.2a21.3,21.3,0,0,0-2.4.4c-.1-.2.8-1.1,2.4-1.2S156.6,447.9,156.4,448.1Z" transform="translate(-26.2 -21.2)" style="fill:#e0e0e0"/><path d="M159.5,452.2c0,.2-1,0-2.2.4s-1.8,1.2-1.9,1.1.3-1.3,1.7-1.8S159.6,452,159.5,452.2Z" transform="translate(-26.2 -21.2)" style="fill:#e0e0e0"/><path d="M159,458.4c-.2-.1.1-1.2,1.2-1.9s2.2-.7,2.2-.5-.9.5-1.8,1.1S159.2,458.5,159,458.4Z" transform="translate(-26.2 -21.2)" style="fill:#e0e0e0"/><path d="M158.8,443.3c-.2.1-.9-.6-2-1.2s-2.2-.7-2.2-.9,1.2-.5,2.5.2S159,443.2,158.8,443.3Z" transform="translate(-26.2 -21.2)" style="fill:#e0e0e0"/><path d="M160.5,438.1c0,.1-.8-.2-1.9-1.1l-1.7-1.8c-.2-.4-.5-.8-.7-1.3a1.5,1.5,0,0,1-.4-.8.9.9,0,0,1,.5-1,1.4,1.4,0,0,1,1.1,0l.7.5,1,1.2a7.6,7.6,0,0,1,1.1,2.2c.4,1.4.3,2.3.2,2.3s-.2-.9-.7-2.1a15.1,15.1,0,0,0-1.2-2l-.9-1c-.4-.4-.7-.6-.9-.4s-.1,0-.1.2a1.4,1.4,0,0,0,.2.6l.7,1.2a14.3,14.3,0,0,0,1.5,1.8C159.9,437.6,160.6,438,160.5,438.1Z" transform="translate(-26.2 -21.2)" style="fill:#e0e0e0"/><path d="M160.1,438.3a5.8,5.8,0,0,1,.6-2.2,8,8,0,0,1,1.5-2l1.2-.9c.5-.2,1.1-.6,1.8-.2a.9.9,0,0,1,.5,1,1.9,1.9,0,0,1-.2.8,5.4,5.4,0,0,1-.7,1.3,5.1,5.1,0,0,1-2.1,1.6c-1.3.5-2.2.3-2.2.2a11.3,11.3,0,0,0,2-.7,4.7,4.7,0,0,0,1.7-1.5,3.4,3.4,0,0,0,.6-1.2,1,1,0,0,0,.1-.9,1.3,1.3,0,0,0-1.1.3l-1.1.7a11.9,11.9,0,0,0-1.5,1.8C160.5,437.5,160.3,438.3,160.1,438.3Z" transform="translate(-26.2 -21.2)" style="fill:#e0e0e0"/><path d="M46.5,428.3,26.2,450.2,60.8,479c2.6-3.5-9.8-25-9.8-25l10.8-12.1Z" transform="translate(-26.2 -21.2)" style="fill:#263238"/><path d="M41.5,443.5a1.8,1.8,0,0,0-1.5,3.2,2,2,0,0,0,2.4-.9,1.7,1.7,0,0,0-1-2.3" transform="translate(-26.2 -21.2)" style="fill:#e0e0e0"/><path d="M26.2,450.2l2.4-3,32.2,29s1,2-.1,2.9Z" transform="translate(-26.2 -21.2)" style="fill:#e0e0e0"/><path d="M51.7,454.3c-.1.1-1.1-.5-2.3-.7s-2.4.2-2.5,0a2.9,2.9,0,0,1,2.6-.7C51,453.1,51.9,454.1,51.7,454.3Z" transform="translate(-26.2 -21.2)" style="fill:#e0e0e0"/><path d="M54.1,458.8c-.1.2-1.1-.1-2.3.1s-1.9.9-2.1.7.5-1.2,2-1.5S54.2,458.6,54.1,458.8Z" transform="translate(-26.2 -21.2)" style="fill:#e0e0e0"/><path d="M52.5,464.9c-.2-.1.3-1.2,1.5-1.7s2.3-.3,2.3-.1-1,.3-2,.8S52.7,465,52.5,464.9Z" transform="translate(-26.2 -21.2)" style="fill:#e0e0e0"/><path d="M54.8,449.9c-.2.1-.8-.8-1.8-1.5s-2-1-2-1.3,1.3-.2,2.5.7S55,449.9,54.8,449.9Z" transform="translate(-26.2 -21.2)" style="fill:#e0e0e0"/><path d="M57.4,445.1c-.1.1-.8-.4-1.7-1.4a11,11,0,0,1-1.4-2.1,5.8,5.8,0,0,1-.5-1.4,1.9,1.9,0,0,1-.2-.8.9.9,0,0,1,.7-1,1.1,1.1,0,0,1,1,.3,3.4,3.4,0,0,1,.6.6,5.7,5.7,0,0,1,.8,1.3,8,8,0,0,1,.7,2.4c.2,1.4-.1,2.2-.2,2.2s0-.9-.3-2.1a12.8,12.8,0,0,0-.9-2.2,4.1,4.1,0,0,0-.7-1.1c-.3-.4-.6-.7-.8-.6l-.2.2a1.4,1.4,0,0,0,.2.6,5,5,0,0,0,.5,1.3,7.5,7.5,0,0,0,1.1,2C56.9,444.4,57.5,445,57.4,445.1Z" transform="translate(-26.2 -21.2)" style="fill:#e0e0e0"/><path d="M57,445.2c-.1,0,.1-.9.9-2.1a10,10,0,0,1,1.8-1.7l1.4-.7a1.9,1.9,0,0,1,1.8.1,1.2,1.2,0,0,1,.3,1.1l-.3.8-1,1.1a5.4,5.4,0,0,1-2.2,1.2c-1.5.3-2.3,0-2.3-.1a17.7,17.7,0,0,0,2.1-.4,5,5,0,0,0,1.9-1.2,3.9,3.9,0,0,0,.8-1c.3-.4.4-.8.2-.9s-.7-.1-1.1,0l-1.2.6-1.8,1.5C57.4,444.5,57.1,445.2,57,445.2Z" transform="translate(-26.2 -21.2)" style="fill:#e0e0e0"/><path d="M172.3,165.5l-4.8,39.7c-1,6.7-2.4,16.8,8.4,17.8h0c9.4.2,13-8.3,13.9-14.6.4-3,.7-5.5.8-5.8s10.3.5,12.4-9.4c1.1-4.8,2.4-14.9,3.5-24a18.8,18.8,0,0,0-15-20.7l-.9-.2C180.1,146.8,173.5,155,172.3,165.5Z" transform="translate(-26.2 -21.2)" style="fill:#ffcbb3"/><path d="M190.6,202.6a24.2,24.2,0,0,1-12.1-6.5s1.6,8,11.7,9.1Z" transform="translate(-26.2 -21.2)" style="fill:#eb996e"/><path d="M189.1,172.6c-.2.1-1.1-.8-2.7-1.5s-2.9-.6-3-.8.2-.2.8-.2a7.4,7.4,0,0,1,2.5.6,6.3,6.3,0,0,1,2.1,1.3C189.2,172.4,189.2,172.6,189.1,172.6Z" transform="translate(-26.2 -21.2)" style="fill:#263238"/><path d="M186.2,174.4a1.4,1.4,0,0,1-2.7-.4,1.4,1.4,0,0,1,1.6-1.1A1.3,1.3,0,0,1,186.2,174.4Z" transform="translate(-26.2 -21.2)" style="fill:#263238"/><path d="M191.8,183.4a7.5,7.5,0,0,1,2.6.1c.4,0,.7,0,.9-.3a2.7,2.7,0,0,0-.1-1.2c-.1-1-.3-2-.5-3.2-.7-4.5-1.2-8.2-1-8.3s.9,3.7,1.7,8.2a26.9,26.9,0,0,0,.5,3.2c0,.5.2,1.1-.2,1.6s-.5.4-.7.5h-.7A7.9,7.9,0,0,1,191.8,183.4Z" transform="translate(-26.2 -21.2)" style="fill:#263238"/><path d="M181.4,164.1c.1-.4,1.5-.3,3.1-.6s2.9-.8,3.1-.5-.1.5-.6,1a4.4,4.4,0,0,1-2.2.9,5,5,0,0,1-2.5-.1C181.7,164.6,181.4,164.3,181.4,164.1Z" transform="translate(-26.2 -21.2)" style="fill:#263238"/><path d="M198.8,168.1c.3-.3,1.5.2,3.1.5s2.9.3,3,.6-.2.4-.8.6a6.4,6.4,0,0,1-2.4,0,5.6,5.6,0,0,1-2.2-.9C198.9,168.5,198.7,168.2,198.8,168.1Z" transform="translate(-26.2 -21.2)" style="fill:#263238"/><path d="M171.6,173.2c-.2-.2-6.9-3.4-7.9,3.8s6.4,6.7,6.5,6.5S171.6,173.2,171.6,173.2Z" transform="translate(-26.2 -21.2)" style="fill:#ffcbb3"/><path d="M168.3,180.5H168a1.2,1.2,0,0,1-1-.1c-.7-.4-1.1-1.7-1-3a4.8,4.8,0,0,1,.6-1.8c.3-.4.7-.8,1.1-.8a.8.8,0,0,1,.7.5c.1.2,0,.3,0,.3s.2-.1.2-.4a1.7,1.7,0,0,0-.2-.5l-.7-.2c-.6-.1-1.1.4-1.5.9a5.4,5.4,0,0,0-.7,1.9c-.2,1.5.4,3,1.4,3.4a1.6,1.6,0,0,0,1.2,0C168.3,180.6,168.4,180.5,168.3,180.5Z" transform="translate(-26.2 -21.2)" style="fill:#eb996e"/><path d="M204.1,173.3c-.2.2-1.4-.1-3.1.2s-2.8.9-3,.8,0-.2.6-.5a5.6,5.6,0,0,1,2.4-.8,6.3,6.3,0,0,1,2.4,0C204,173.1,204.2,173.3,204.1,173.3Z" transform="translate(-26.2 -21.2)" style="fill:#263238"/><path d="M200.7,176.7a1.5,1.5,0,0,1-1.6,1.1c-.8-.2-1.3-.8-1.1-1.5a1.4,1.4,0,0,1,2.7.4Z" transform="translate(-26.2 -21.2)" style="fill:#263238"/><path d="M221.2,162a1.3,1.3,0,0,0-.6-1,4.4,4.4,0,0,0-2.5-.8,13.5,13.5,0,0,1-6.1-2.4,7.5,7.5,0,0,0,2-1,4.3,4.3,0,0,0,1.8-4.1,1.2,1.2,0,0,0-.4-.8c-.5-.2-.9.2-1.3.5a3.7,3.7,0,0,1-3.6,1.1,5.8,5.8,0,0,1-2.5-1.2c-.1,0-.1,0-.1-.1L207,151h0c-2.3-2.8-4.3-4.9-6.4-6.1s-8.7-3.1-12.3-2.6-7.1,2.9-8.1,6.4c-1.7-1.9-4.7-2.3-7.2-1.6h0c-2.8.6-4.7,3.3-5.8,5.9-.1.1-.1.2-.2.4a9.9,9.9,0,0,1-4,3,1.1,1.1,0,0,0-.7.6,1,1,0,0,0,.4.7,4.7,4.7,0,0,0,2,1.2,17.4,17.4,0,0,1-1.1,1.8c-.4.4-.8,1-.6,1.5a1.2,1.2,0,0,0,1.1.7,2.8,2.8,0,0,0,1.3-.4,19.8,19.8,0,0,0-1.1,2,5.7,5.7,0,0,0,2.9.2,62.4,62.4,0,0,0,.9,7.4,4.3,4.3,0,0,1,2.8,1c.8,1,1,2.6,2.6,2.2s1.8-1.7,2.1-2.5a38.8,38.8,0,0,0,3.9-16.4,13.2,13.2,0,0,1,4.2-2.3h-.1c2.9-.6,6.2-1.1,8.7.5s2.9,3.6,4.2,5.5a15.2,15.2,0,0,0,10.1,6.6c0,3.1-.8,6.9-1,9.7l3.2-4.2h0l.6-.9h.1a13,13,0,0,1,1-1.5h0a1.8,1.8,0,0,0,2.9-2,3.6,3.6,0,0,0-.7-1,2.7,2.7,0,0,0,2.5,1,2.2,2.2,0,0,0,1.9-1.9,2.1,2.1,0,0,0-1-1.7,5.8,5.8,0,0,0,3.7-.3C220.6,163.5,221.4,162.9,221.2,162Z" transform="translate(-26.2 -21.2)" style="fill:#263238"/><path d="M183.2,150.3l-1.1.7a7.3,7.3,0,0,0-2,3.2c-.2.7-.4,1.6-.6,2.5s-.1,1.9-.2,3-.1,2.1-.3,3.3a15.4,15.4,0,0,1-.5,1.7,4.3,4.3,0,0,1-.9,1.6,2,2,0,0,1-1.5.3,2.7,2.7,0,0,1-1.2-.9,5.3,5.3,0,0,1-.6-2.7h.2a6.2,6.2,0,0,1-1.5,2,3.4,3.4,0,0,1-2.1.8,1.9,1.9,0,0,1-1-.3,1.6,1.6,0,0,1-.6-.8,1.4,1.4,0,0,1-.1-.9.8.8,0,0,1,.4-.7h.1a8.3,8.3,0,0,1-2.4,1.3l-.7.2h0l.7-.2a6.9,6.9,0,0,0,2.3-1.3h.1a1.1,1.1,0,0,0-.2,1.4c.1.3.2.6.5.7l.9.3a3.2,3.2,0,0,0,2-.8,9.4,9.4,0,0,0,1.4-1.9l.2-.3v.4a5.4,5.4,0,0,0,.6,2.5,1.8,1.8,0,0,0,1.1.8,1.1,1.1,0,0,0,1.2-.2,3.4,3.4,0,0,0,.9-1.5,10.5,10.5,0,0,0,.4-1.7c.2-1.1.3-2.2.4-3.2a25.3,25.3,0,0,1,.3-3,9.9,9.9,0,0,1,.6-2.6,6.4,6.4,0,0,1,2-3.1A3,3,0,0,1,183.2,150.3Z" transform="translate(-26.2 -21.2)" style="fill:#455a64"/><path d="M213,164h-.4l-.4.3-.7.2a8.7,8.7,0,0,1-4.4.2,11.3,11.3,0,0,1-5.7-3,20.2,20.2,0,0,1-4.5-6.7l-1.5-3.8a15.6,15.6,0,0,0-1.8-3.4,7.6,7.6,0,0,0-2.7-2.1l-1.5-.4H188a7,7,0,0,0-2.3,1,5.3,5.3,0,0,0-1.3,1.3,4.3,4.3,0,0,0-.7,1.5h0V149l.5-1.1a4.7,4.7,0,0,1,1.4-1.4,4.6,4.6,0,0,1,2.2-1.1h1.5l1.6.4a6.3,6.3,0,0,1,2.7,2.2,12.5,12.5,0,0,1,1.9,3.4c.6,1.2,1,2.5,1.6,3.8a18.4,18.4,0,0,0,4.3,6.6,11.3,11.3,0,0,0,5.7,3,8.6,8.6,0,0,0,4.3-.1A7.2,7.2,0,0,0,213,164Z" transform="translate(-26.2 -21.2)" style="fill:#455a64"/><path d="M214.5,159.7c0,.1-.2.1-.4.2l-1.2.4a6.1,6.1,0,0,1-1.7.4,16.1,16.1,0,0,1-2.2,0l-2.2-.4-1.6-.7-1.1-.6-.3-.3,1.5.7a3.8,3.8,0,0,0,1.6.6l2.1.5h2.2l1.7-.3Z" transform="translate(-26.2 -21.2)" style="fill:#455a64"/><path d="M202.4,357.1a129.3,129.3,0,0,0-8.4-11.2c-6.2-7.6-15.1-17.1-18.9-21s-15.4-21.1-19.2-25.5S143,288.6,143,288.6l-47.6,5.3-3,2.8c.6,3.8,2.6,16,6.9,21.5s18.9,19.1,25.6,21a119.8,119.8,0,0,1,12.6,4.7c7.6,5.2,32.7,22.7,34.7,25.5a.8.8,0,0,1,0,1s-10,10.4-14.9,20.7C151.5,403.3,138,431,138,431l23.9,12.2s30.5-49.3,34.5-55.4c1.6-2.5,4.7-8.5,7.2-13.6A16.9,16.9,0,0,0,202.4,357.1Z" transform="translate(-26.2 -21.2)" style="fill:#263238"/><path d="M142.7,310l-35.1-12.1s.8,14.7,2.9,18.4l-22.2,49S66.5,394.9,60.2,403c-8,10.5-21.3,32.4-21.3,32.4l19.4,14.1,48.1-57.3s5.4-2.3,7.3-5.4l36.5-45.3Z" transform="translate(-26.2 -21.2)" style="fill:#263238"/><path d="M249,228.1l-.8-6.8,3.9-4.7a43.4,43.4,0,0,0,4.6-3,1.7,1.7,0,0,1,.5,1.7s1.3-1.7,2.2-1.6,1.5,1.7,1.7,2.7a6.3,6.3,0,0,1,1.7,1.2,3.6,3.6,0,0,1,1.1,1.8l-.2,1.4a1.5,1.5,0,0,1,1.6.8,4.5,4.5,0,0,1,.4,2.5s1-.6,1.5.3a2.1,2.1,0,0,1,.4,2.1c-.2.7-3.6,6.4-4.7,7.3L252,242.3l-8.5-8.8Z" transform="translate(-26.2 -21.2)" style="fill:#ffcbb3"/><path d="M266.4,226.8a15.2,15.2,0,0,1-1.5,1.7l-1.9,1.4a1.8,1.8,0,0,1-2.8-.4,1.8,1.8,0,0,1,.2-1.6,2.7,2.7,0,0,1,1-1.1l2-1.3,2-1-1.9,1.2-1.9,1.4a4.3,4.3,0,0,0-.9,1,1.3,1.3,0,0,0-.1,1.2,1.2,1.2,0,0,0,1,.7,2.1,2.1,0,0,0,1.2-.4l1.9-1.4C265.8,227.4,266.3,226.8,266.4,226.8Z" transform="translate(-26.2 -21.2)" style="fill:#eb996e"/><path d="M261.3,216.5c.1.1-.6.7-1.7,1.7l-1.7,2-.9,1.2a2.3,2.3,0,0,1-1.4,1.1,1.2,1.2,0,0,1-1-.2,1.8,1.8,0,0,1-.5-.7,2.5,2.5,0,0,1,.1-1.7,12.7,12.7,0,0,1,.7-1.2l.7-1a21.2,21.2,0,0,1,1.5-2,13.4,13.4,0,0,1-1.2,2.2,14.2,14.2,0,0,0-1.3,2.2,1.5,1.5,0,0,0-.1,1.3.9.9,0,0,0,1,.7,2.2,2.2,0,0,0,1.2-.9l.9-1.3,1.8-1.9A15,15,0,0,1,261.3,216.5Z" transform="translate(-26.2 -21.2)" style="fill:#eb996e"/><path d="M263.3,220.4c.1.1-.5.5-1.2,1.3a16.6,16.6,0,0,1-3.3,3,5.2,5.2,0,0,1-1.1.7.8.8,0,0,1-.7.1l-.5-.3a1,1,0,0,1-.5-.4c-.1-.2-.2-.3-.2-.5a3.4,3.4,0,0,1-.1-1,2.2,2.2,0,0,1,.5-1.3l.3-.3c.1.1-.5.6-.5,1.6a2.8,2.8,0,0,0,.1.9c.1.1.1.3.2.4l.4.3.4.2h.5a4.6,4.6,0,0,0,1-.7,25.1,25.1,0,0,0,3.3-2.8A6.1,6.1,0,0,1,263.3,220.4Z" transform="translate(-26.2 -21.2)" style="fill:#eb996e"/><path d="M265.6,223.9l-2,1.6-2.3,1.6a7.5,7.5,0,0,1-1.5.9h-1a1.8,1.8,0,0,1-.8-.7,1.9,1.9,0,0,1,.4-1.9,14.7,14.7,0,0,1,1-1.3,18,18,0,0,1,2.1-1.9l1.5-1.1.7-.3a24.4,24.4,0,0,0-4,3.6,14.7,14.7,0,0,0-1,1.3,1.5,1.5,0,0,0-.3,1.4,1.1,1.1,0,0,0,1.3.5,5.7,5.7,0,0,0,1.3-.8l2.4-1.6Z" transform="translate(-26.2 -21.2)" style="fill:#eb996e"/><path d="M257.3,215.2a9.1,9.1,0,0,1-2.3,3.6l-.6.7-.3.2h-.2a6.1,6.1,0,0,1-.1,1.4,2,2,0,0,1-.4,1.1c-.1,0,.1-.4.1-1.2a2.8,2.8,0,0,0,0-1.3v-.3l.2-.2.3-.2.6-.6,1.8-2.4C257,215.6,257.2,215.2,257.3,215.2Z" transform="translate(-26.2 -21.2)" style="fill:#eb996e"/><path d="M256,225.5l-.5-.7-1.4-1.4a3.5,3.5,0,0,0-1.6-1c-.5-.1-.8-.1-.8-.2a1.3,1.3,0,0,1,.9-.1,3.7,3.7,0,0,1,1.8,1,6.7,6.7,0,0,1,1.4,1.6C256.1,225.1,256.1,225.5,256,225.5Z" transform="translate(-26.2 -21.2)" style="fill:#eb996e"/><path d="M67,249.4s.6,5.6.3,7.2-2,6.6-1.7,8.8a1.4,1.4,0,0,1-2.2-.9,14.8,14.8,0,0,1-.3-6.2c.3-1.3-.7-1.4-1.5-.8s-5,6-5,6-4,6.8-5,6.9-1.4-1-1.6-1.4,3-6.6,3-6.6l2.1-2.8s-7,8.4-8.1,8.5a1.2,1.2,0,0,1-1.4-1.3c0-.7,3.1-4.4,3.1-4.4l3.9-5.2-8.7,8.6s-.9.7-1.6.1-.1-2-.1-2l8.2-9.7s-9.2,1.9-9.7,1.5-.9-1.1-.4-1.3l10.2-4.3,8.4-6.3,2.2-1.7,7,6Z" transform="translate(-26.2 -21.2)" style="fill:#ffcbb3"/><path d="M56.9,241.2,79.3,209A15.6,15.6,0,0,1,91,202.6l41.2-2.1s6-7.1,9.5-6.4,9,4.3,7.5,10.8-10.5,19.9-20.8,21.1H93.8L69.9,250.6Z" transform="translate(-26.2 -21.2)" style="fill:#455a64"/><path d="M135.6,293.1l20.3,6.3c2.6-2.7,9.5-18.3,9.5-18.3Z" transform="translate(-26.2 -21.2)" style="fill:#e0e0e0"/><path d="M164.8,197.6l-23-2.4-12.3,28.1-10.1,41.8S85.8,285.3,79.3,294c-3.3,4.4,6.8,15.7,6.8,15.7s10.4,15.2,20.4,13.3,32.8-18.7,44.2-26.9c3.3-2.4,9.2-6.7,12.8-12.1a69.6,69.6,0,0,0,8.4-18.5Z" transform="translate(-26.2 -21.2)" style="fill:#455a64"/><path d="M189.7,208.7l10.6,12.1c.5.9-7.9,30.7-11.8,38.2-1.5,2.9-12.5,15.3-18.3,25.9v33.3l-14.3-18.8,2.2-3.2,13.8-30.7,18.7-21.9-.6-19.9Z" transform="translate(-26.2 -21.2)" style="fill:#455a64"/><path d="M227.8,241.4l-25.5-15.7-2-4.9-12.5,36.4s36.4,9,43.6,5.8,28.3-22.4,28.3-22.4l-13-12.2Z" transform="translate(-26.2 -21.2)" style="fill:#455a64"/><path d="M164.8,197.6l2.4-3.2a88.7,88.7,0,0,1,10.7,11.1,114.5,114.5,0,0,1,6.7,10.6l5.3-7,.7,34.5-18.7,21.9-6.8-65.7Z" transform="translate(-26.2 -21.2)" style="fill:#e0e0e0"/><path d="M167,262.1c-.1,0-.1-.2-.3-.6s-.3-1.1-.5-1.9-1.1-4-2-6.9-2.1-6.4-3.3-10.2-2.6-8-3.7-12.6a51.8,51.8,0,0,1-1.4-6.6,19.4,19.4,0,0,1,.6-6.4c1.2-3.9,3.1-7,4.4-9.8a23.8,23.8,0,0,0,2.4-6.7,5.2,5.2,0,0,0,.2-1.1,2.5,2.5,0,0,0,.1-.8,1.7,1.7,0,0,1,.1-.7v1.5c-.1.4-.1.7-.2,1.2a20.8,20.8,0,0,1-2.3,6.8c-1.2,2.8-3.1,5.9-4.2,9.8a17.6,17.6,0,0,0-.6,6.1,51.8,51.8,0,0,0,1.4,6.6c1.1,4.5,2.4,8.7,3.6,12.6l3.2,10.2c.9,2.9,1.5,5.3,1.9,6.9a11.5,11.5,0,0,1,.4,2Z" transform="translate(-26.2 -21.2)" style="fill:#263238"/><path d="M127.8,256.5a5.6,5.6,0,0,1,.2-1.2q.3-1.2.6-3c.5-2.5,1.2-6.1,1.8-10s.9-7.6,1.1-10.2a23.6,23.6,0,0,1,.2-3,5.5,5.5,0,0,1,.1-1.2c.1,0,.1.4.1,1.2s0,1.8-.1,3.1-.4,6.2-.9,10.1-1.3,7.5-1.9,10.1-.6,2.3-.8,3S127.9,256.5,127.8,256.5Z" transform="translate(-26.2 -21.2)" style="fill:#455a64"/><path d="M135.8,249.5c-.2.1-1.4-1.8-3.1-4.1s-3.3-3.9-3.2-4a16.2,16.2,0,0,1,3.6,3.7A22.1,22.1,0,0,1,135.8,249.5Z" transform="translate(-26.2 -21.2)" style="fill:#455a64"/><path d="M139.3,241.2c0,.2-2.3.1-5-1a12.7,12.7,0,0,1-4.5-2.7c.1-.1,2,1.2,4.6,2.2S139.4,241.1,139.3,241.2Z" transform="translate(-26.2 -21.2)" style="fill:#455a64"/><path d="M168.7,269.2l-.4.2-1.2.7a31.6,31.6,0,0,1-4.7,2.1,35.6,35.6,0,0,1-16.9,1.5,37.1,37.1,0,0,1-15.6-6.4,34.9,34.9,0,0,1-4-3.3,9.1,9.1,0,0,1-1-1c-.2-.2-.4-.4-.3-.4l1.4,1.2a37.1,37.1,0,0,0,4.1,3.2,38.5,38.5,0,0,0,15.5,6.2,35.7,35.7,0,0,0,16.6-1.4A33.4,33.4,0,0,0,167,270Z" transform="translate(-26.2 -21.2)" style="fill:#455a64"/><path d="M164.6,276.4l-.7.6-2.1,1.6a37.3,37.3,0,0,1-7.8,4,35,35,0,0,1-8.6,2.2l-2.6.2c-.6,0-1,0-1-.1l3.6-.5a47.9,47.9,0,0,0,8.4-2.2,43.3,43.3,0,0,0,7.8-3.9Z" transform="translate(-26.2 -21.2)" style="fill:#263238"/><path d="M169.7,286.9c-.2,0-.2-2.2-.6-4.9s-1.1-4.9-.9-5a15.1,15.1,0,0,1,1.4,4.9A15.6,15.6,0,0,1,169.7,286.9Z" transform="translate(-26.2 -21.2)" style="fill:#455a64"/><path d="M136.1,223.9c-.1-.1,1.5-1,3.6-3a22.8,22.8,0,0,0,5.9-9.5,23.4,23.4,0,0,0,.5-11.3,28.9,28.9,0,0,0-1.3-4.5c.1,0,.3.4.6,1.1a19.4,19.4,0,0,1,1.1,3.4,22.4,22.4,0,0,1-.4,11.4,21.6,21.6,0,0,1-6.1,9.7,16.7,16.7,0,0,1-2.8,2.1Z" transform="translate(-26.2 -21.2)" style="fill:#263238"/><path d="M170.2,284.9l.3-.6,1.1-1.8c.9-1.5,2.3-3.6,4.1-6.3,3.5-5.3,8.5-12.5,13.4-20.9l1.7-3.1c.6-1,1.1-2.1,1.6-3.1l1.4-3a9.8,9.8,0,0,0,.5-1.6,8.8,8.8,0,0,0,.5-1.5,24.5,24.5,0,0,0,.8-5.8,43.8,43.8,0,0,0-.1-5.2,67.8,67.8,0,0,0-.9-7.4c-.1-.9-.2-1.6-.2-2.1a3.2,3.2,0,0,1-.1-.7l.2.7c.1.5.2,1.2.3,2s.8,4.3,1.1,7.5a43.8,43.8,0,0,1,.1,5.2,25.8,25.8,0,0,1-.7,6,8.8,8.8,0,0,1-.5,1.5,9.4,9.4,0,0,1-.6,1.5c-.4,1-.8,2.1-1.3,3.1a30.1,30.1,0,0,1-1.6,3.1c-.6,1.1-1.1,2.1-1.8,3.2-4.9,8.4-9.9,15.6-13.5,20.8l-4.2,6.2-1.2,1.7A2.5,2.5,0,0,1,170.2,284.9Z" transform="translate(-26.2 -21.2)" style="fill:#263238"/><path d="M201.3,231a21.8,21.8,0,0,1-1,2.7c-.6,1.7-1.6,4-2.7,6.5a59.1,59.1,0,0,1-3.1,6.2,15.7,15.7,0,0,1-1.4,2.5,18.2,18.2,0,0,1,1.1-2.6l2.9-6.3,2.9-6.4A12.8,12.8,0,0,1,201.3,231Z" transform="translate(-26.2 -21.2)" style="fill:#263238"/><path d="M204.9,237.7a22.6,22.6,0,0,1-2.1,2,57.5,57.5,0,0,0-4.7,4.9,63.2,63.2,0,0,0-4.3,5.3c-1.1,1.4-1.7,2.3-1.8,2.2l1.5-2.4a38.4,38.4,0,0,1,4.2-5.5,42.8,42.8,0,0,1,4.9-4.8C203.9,238.3,204.8,237.6,204.9,237.7Z" transform="translate(-26.2 -21.2)" style="fill:#263238"/><path d="M230.4,252.7c-.2,0-.7-2.1-1.3-4.8a31.8,31.8,0,0,1-.7-4.9c.2,0,.7,2.1,1.2,4.8A26.5,26.5,0,0,1,230.4,252.7Z" transform="translate(-26.2 -21.2)" style="fill:#263238"/><path d="M232.6,251.7c-.1,0-.7-2.2-1.6-4.9s-1.9-4.8-1.7-4.8a22.1,22.1,0,0,1,3.3,9.7Z" transform="translate(-26.2 -21.2)" style="fill:#263238"/><path d="M88.4,214.6a20,20,0,0,1,3.7,5.3c1.7,3.1,2.6,5.8,2.4,5.9s-1.2-2.6-2.9-5.7S88.3,214.7,88.4,214.6Z" transform="translate(-26.2 -21.2)" style="fill:#263238"/><path d="M91.3,211.5c.2,0,1.1,2.7,2,6.2a41.5,41.5,0,0,1,1.5,6.2c-.2.1-1-2.7-2-6.1A62.8,62.8,0,0,1,91.3,211.5Z" transform="translate(-26.2 -21.2)" style="fill:#263238"/><path d="M126.1,278.5q0-.2,1.5-.3l4.2-.4c3.5-.5,8.4-1.1,13.8-2s10.2-1.8,13.6-2.6l4.2-.9,1.5-.3c0,.1-.5.2-1.5.5l-4.1,1.1c-3.4.8-8.3,1.9-13.6,2.8s-10.3,1.4-13.9,1.7l-4.2.3Z" transform="translate(-26.2 -21.2)" style="fill:#263238"/><path d="M141.1,265.1a16.8,16.8,0,0,1,3,.9,66.6,66.6,0,0,0,7.3,2.2l7.4,1.8a14.9,14.9,0,0,1,3.1.7l-3.1-.4a64.5,64.5,0,0,1-7.5-1.6,58.5,58.5,0,0,1-7.3-2.3A27.4,27.4,0,0,1,141.1,265.1Z" transform="translate(-26.2 -21.2)" style="fill:#263238"/><polyline points="98.4 271.3 89.8 275.7 73.7 259.3 82.7 256.7" style="fill:#455a64"/><path d="M108.9,278l-.6.2-1.8.6-6.6,2v-.4l8.2,8.3,7.9,8.1h-.2l6.3-3,1.7-.9.7-.2-.6.3-1.7,1-6.2,3.2h-.3l-8-8.1-8.1-8.3-.2-.3h.3l6.6-1.7,1.8-.5Z" transform="translate(-26.2 -21.2)" style="fill:#263238"/><path d="M124.6,292.6a67.5,67.5,0,0,1-6.8-6.1,80.4,80.4,0,0,1-6.4-6.4,83.3,83.3,0,0,1,6.8,6.1A80.4,80.4,0,0,1,124.6,292.6Z" transform="translate(-26.2 -21.2)" style="fill:#263238"/><path d="M169,272.1h.2a1.7,1.7,0,0,0-2.2,1.1,1.8,1.8,0,0,0,1.3,2.1,1.6,1.6,0,0,0,.7-3.2Z" transform="translate(-26.2 -21.2)" style="fill:#263238"/><path d="M158.1,290c-.1,0,1.1-1.1,2.7-3.2a63.9,63.9,0,0,0,5.5-8.7,56.6,56.6,0,0,0,4.1-9.3c.9-2.5,1.1-4.1,1.2-4.1s0,.4-.1,1.1a18.2,18.2,0,0,1-.7,3.1,61.6,61.6,0,0,1-4.1,9.5,53.5,53.5,0,0,1-5.6,8.6,25.8,25.8,0,0,1-2.2,2.3C158.4,289.8,158.1,290.1,158.1,290Z" transform="translate(-26.2 -21.2)" style="fill:#263238"/><path d="M155.5,394.9a1.5,1.5,0,0,1,.2-.6,11.3,11.3,0,0,0,.7-1.5l3-5.5a75.8,75.8,0,0,1,5.4-8.2l3.6-4.8,2.1-2.4,1.2-1.3.5-.6c.1-.2,0-.3-.1-.4H172a42.1,42.1,0,0,0-4.4-3.9l-5.1-3.8L151.6,354l-14.2-9.9h0c-2.6-1.1-5-2.6-7.3-3.7a42.8,42.8,0,0,0-7.2-2.3,26.7,26.7,0,0,1-11-5.8,40.9,40.9,0,0,1-5.6-5.8l-1.4-1.7-.3-.5a.3.3,0,0,0-.1-.2l.2.2.3.4,1.4,1.7a50.1,50.1,0,0,0,5.7,5.7,25,25,0,0,0,4.8,3.2,26.7,26.7,0,0,0,6.2,2.4,36.5,36.5,0,0,1,7.1,2.3c2.5,1.1,4.8,2.6,7.4,3.7h.1l14.2,9.9c3.8,2.7,7.5,5.3,10.9,7.9l5.1,3.8a42.8,42.8,0,0,1,4.5,4h-.1a.7.7,0,0,1,.4.5.7.7,0,0,1-.1.5,2.2,2.2,0,0,1-.6.7l-1.1,1.3a22.5,22.5,0,0,0-2.1,2.4c-1.4,1.6-2.6,3.2-3.7,4.7-2.3,3-4,5.8-5.5,8.1l-3.1,5.5-.7,1.5Z" transform="translate(-26.2 -21.2)" style="fill:#455a64"/><polygon points="160 193.3 157.3 193.2 157.3 193.2 155.9 195.5 156.8 198 159.5 198.3 161 195.2 160 193.3" style="fill:#457745"/><path d="M182.7,217l-4.7-2.6s1.6-2.8,5.6,0Z" transform="translate(-26.2 -21.2)" style="fill:#457745"/><path d="M183.6,214.4l-.8-.5a4.5,4.5,0,0,0-2.3-.6,3.7,3.7,0,0,0-1.6.5,8.7,8.7,0,0,0-1.5,1.3,28.6,28.6,0,0,1-3.5,3.4l-.3.2v-.4a28.8,28.8,0,0,0-1.5-5.1,121.3,121.3,0,0,0-4.9-11.2c-.7-1.3-1.3-2.4-1.7-3.3l-.6-1.3c.1,0,.3.4.8,1.2l1.8,3.3a71.8,71.8,0,0,1,5.1,11.2,26.5,26.5,0,0,1,1.5,5.1h-.4a37.5,37.5,0,0,0,3.5-3.3,9.1,9.1,0,0,1,1.6-1.3,3.1,3.1,0,0,1,1.8-.5,3.8,3.8,0,0,1,2.4.8C183.4,214.1,183.6,214.3,183.6,214.4Z" transform="translate(-26.2 -21.2)" style="fill:#263238"/><path d="M189.9,216.9a1.9,1.9,0,0,1-.2,1.1,4,4,0,0,1-1.9,2h-.4v-1.3c-.1-2.5-1.4-4.3-1.2-4.4a5.6,5.6,0,0,1,.8,1.1,8.7,8.7,0,0,1,.9,3.3v.9l-.3-.2a3.7,3.7,0,0,0,1.8-1.7C189.7,217.3,189.8,216.9,189.9,216.9Z" transform="translate(-26.2 -21.2)" style="fill:#263238"/><path d="M183.6,218.3v.5c-.1.3-.1.8-.2,1.4s-.4,2.9-.8,5.1c-.7,4.3-1.8,10.3-3.3,16.8s-3.4,12.3-4.9,16.5c-.8,2-1.4,3.7-1.9,4.8a13.9,13.9,0,0,0-.6,1.3,1.1,1.1,0,0,1-.2.4c-.1,0,0-.2.1-.5l.5-1.3,1.8-4.9c1.4-4.1,3.1-9.9,4.7-16.4s2.6-12.4,3.4-16.8c.4-2.1.8-3.8,1-5.1a13,13,0,0,1,.3-1.3C183.5,218.4,183.6,218.3,183.6,218.3Z" transform="translate(-26.2 -21.2)" style="fill:#263238"/><g style="opacity:0.30000000000000004"><path d="M184.4,218.7c-1.7,1.5-2.6,3.6-4.2,5.1-3.7,3.7-9.8,3.4-14.8,2s-10-3.8-15.3-3.4-11.1,4.1-15.8,7.8c-2.4,1.8-5.3,3.4-7.7,5.3l-2.4,9.8c4,1,8.5-1.8,11.4-4.8s5.3-6.6,8.9-8.6,7.8-2.3,11.8-1.9,8,1.4,12.1,1.6,8.3-.1,11.7-2.4S185.6,222.6,184.4,218.7Z" transform="translate(-26.2 -21.2)"/></g><path d="M182,216.8c.5,1.7-1.1,2.6-2.7,3.5s-3.9.8-5.7.7c-8.7-.6-15.8-7.4-24.4-8.1-6.1-.5-12.5,2.4-17.6,5.6s-9.6,7.4-14.6,10.8c-11.9,8.2-14.5,6.9-26.4,9.2l-3.8,8.9,10,2.5s23.9-6.2,31.5-14,12-14.8,17.6-16.2c11.9-3,24.7,7.1,31.8,5.7a11.4,11.4,0,0,0,8.6-7.1Z" transform="translate(-26.2 -21.2)" style="fill:#457745"/><g style="opacity:0.30000000000000004"><polygon points="76.5 262.2 72 263.7 86 278.2 97 272 90 275.1 76.5 262.2"/></g><g style="opacity:0.30000000000000004"><path d="M161.8,275.4c-10.1,5.2-21.7,6.3-33,7.3,9.6,2.2,23.3.3,33-7.3" transform="translate(-26.2 -21.2)"/></g><path d="M190.6,187a5.3,5.3,0,0,0-1.5-.8,2.2,2.2,0,0,0-1.6.1,2.9,2.9,0,0,0-1.3,2.4c1.1,1.5,2.1,1.6,3.8,1.5a16.7,16.7,0,0,0,.8-3" transform="translate(-26.2 -21.2)" style="fill:#eb996e"/><path d="M190.1,190.4a2.6,2.6,0,0,1-1.6.1,6,6,0,0,1-1.6-.8,2,2,0,0,1-.8-.8,1.7,1.7,0,0,1-.1-1.2,3.3,3.3,0,0,1,1.6-1.7,2.3,2.3,0,0,1,1.8,0c1,.5,1.3,1.1,1.2,1.1a3.5,3.5,0,0,0-1.3-.7,2,2,0,0,0-1.5.1,2.3,2.3,0,0,0-1.3,1.4c-.3.6.2,1.1.7,1.4a3.4,3.4,0,0,0,1.4.8C189.5,190.4,190.1,190.3,190.1,190.4Z" transform="translate(-26.2 -21.2)" style="fill:#263238"/><path d="M190.6,257.8h.4l1.1.2,4.2.8,15.7,2.8c3.3.5,6.9,1.2,10.8,1.6a24,24,0,0,0,6,.1c2.1-.3,3.9-1.5,5.8-2.6a50.1,50.1,0,0,0,5.5-3.9l5.5-4.5,11.4-9.7,2.6-2.3v.4l-13-12.2h.3l-18.8,13h-.3l-18.5-11.5-5.1-3.2-1.3-.8-.5-.4.5.3,1.4.8,5.1,3.1,18.6,11.4h-.2l18.9-13.1h.1l.2.2,13,12.1.2.2-.2.2-2.6,2.3c-3.8,3.3-7.6,6.6-11.4,9.7l-5.5,4.4a35.8,35.8,0,0,1-5.6,4c-1.8,1.1-3.7,2.4-5.9,2.7a25.6,25.6,0,0,1-6.2-.2c-3.9-.4-7.5-1.1-10.8-1.7l-15.6-2.9-4.3-.9-1.1-.3Z" transform="translate(-26.2 -21.2)" style="fill:#263238"/></g></g></svg>