<svg id="OBJECTS" xmlns="http://www.w3.org/2000/svg" xmlns:xlink="http://www.w3.org/1999/xlink" viewBox="0 0 464.2 553"><defs><style>.cls-1,.cls-17,.cls-19,.cls-20,.cls-26,.cls-6{fill:none;}.cls-2{fill:#a9bae6;}.cls-3{fill:#f6f4f5;}.cls-4{fill:#e4e4e4;}.cls-22,.cls-5{fill:#fff;}.cls-6{stroke:#708cd4;stroke-miterlimit:10;}.cls-7{fill:#2f8c2f;}.cls-8{fill:#718bd2;}.cls-9{fill:#d1dffc;}.cls-10{fill:#718cd4;}.cls-11{fill:#176817;}.cls-12{fill:#f7c245;}.cls-13{opacity:0.8;}.cls-14{fill:#ef6d58;}.cls-15{fill:#112049;}.cls-16{fill:#ef6e58;}.cls-17{stroke:#d4d4d4;}.cls-17,.cls-19,.cls-20,.cls-21,.cls-22,.cls-26,.cls-27{stroke-linecap:round;stroke-linejoin:round;}.cls-18,.cls-27{fill:#d4d4d4;}.cls-19,.cls-20,.cls-21,.cls-22,.cls-27{stroke:#000;}.cls-20{stroke-width:0.75px;}.cls-21,.cls-24{fill:#6bb66e;}.cls-23{fill:#ed5d1c;}.cls-25{clip-path:url(#clip-path);}.cls-26{stroke:#6bb66e;}.cls-28{clip-path:url(#clip-path-2);}.cls-29{clip-path:url(#clip-path-3);}.cls-30{fill:#ffc835;}</style><clipPath id="clip-path" transform="translate(-15.5 -20)"><path class="cls-1" d="M156.6,367.7A87,87,0,0,1,174,353l-42.8-64.7c-12.3,7.1-23.8,14.4-31.5,20.2-18.4,13.9-69.6,59.2-38.3,105.8s133.1,17.6,133.1,17.6,40.1-55.9,35.4-59.3S157.1,367.7,156.6,367.7Z"/></clipPath><clipPath id="clip-path-2" transform="translate(-15.5 -20)"><path class="cls-1" d="M327.1,503s10.6,40.8,70.3,39.7a23.8,23.8,0,0,0,7.7-12.9c11.5-55.4-15.5-82.8-60.2-117-58.2-44.7-82-37.1-82-37.1L327.1,503Z"/></clipPath><clipPath id="clip-path-3" transform="translate(-15.5 -20)"><path class="cls-1" d="M312.2,407.4a49.2,49.2,0,0,0-4.1-5.8c1.2-3.3,2.1-6,2-6.5s-8.8-11.2-16.3-11.7a22.8,22.8,0,0,0-5.2.4,94.4,94.4,0,0,0-34.1-13.7c-15.6-3-29.7.7-41.2,6.5-2.9-2.7-5.9-5.1-8.3-5.8-6.7-2.2-21.3,2.8-23.1,10.2-1.3,4.8,1.9,11.9,4.3,16.3a48.9,48.9,0,0,0-3.5,4C144.6,443.7,147.3,550,147.3,550H329.8C338.6,451.1,312.2,407.4,312.2,407.4Z"/></clipPath></defs><g id="TaskList"><rect class="cls-2" x="356.2" y="110.4" width="76.4" height="104.4" rx="3.7"/><rect class="cls-3" x="362.9" y="184.8" width="63.2" height="21.48"/><path class="cls-4" d="M378.5,225.1l59-2a2.1,2.1,0,0,0,2.1-1.8l2-12.4V134.5H378.5Z" transform="translate(-15.5 -20)"/><path class="cls-5" d="M436.3,220.2c-2.5,3-62.8,4.9-61.1,3.6l3.3-89.4h15v5.1h32.8v-4.2l15.5.7v53.6S438.9,217.2,436.3,220.2Z" transform="translate(-15.5 -20)"/><rect class="cls-6" x="369.3" y="186.5" width="7" height="7.05"/><path class="cls-7" d="M386.6,208.5h1a.5.5,0,0,1,.4.3l.8,1.2,4.5-4.7h1l-5.6,5.9Z" transform="translate(-15.5 -20)"/><rect class="cls-6" x="369.5" y="173.7" width="7" height="7.05"/><path class="cls-7" d="M386.7,195.7h1c.2,0,.3.1.4.3l.8,1.2,4.6-4.7h1l-5.7,5.9Z" transform="translate(-15.5 -20)"/><rect class="cls-6" x="369.9" y="160.9" width="7" height="7.05"/><path class="cls-7" d="M387.2,182.9h1l.4.3.8,1.3,4.5-4.7h1l-5.7,5.9Z" transform="translate(-15.5 -20)"/><rect class="cls-6" x="370.2" y="148.3" width="7" height="7.05"/><path class="cls-7" d="M387.4,170.3h1a.5.5,0,0,1,.5.3l.7,1.2,4.6-4.7h1l-5.7,6Z" transform="translate(-15.5 -20)"/><rect class="cls-6" x="370.6" y="134.9" width="7" height="7.05"/><path class="cls-7" d="M387.8,156.9h1l.4.3.8,1.3,4.5-4.7h1l-5.6,5.9Z" transform="translate(-15.5 -20)"/><rect class="cls-8" x="402.7" y="155.5" width="29.7" height="2.69" transform="translate(-12.7 -27.2) rotate(1)"/><rect class="cls-9" x="402.5" y="160.4" width="20.4" height="2.83" transform="translate(-12.6 -27.1) rotate(1)"/><rect class="cls-8" x="402.5" y="168.4" width="25" height="2.69" transform="translate(-12.5 -27.3) rotate(1)"/><rect class="cls-9" x="402.2" y="173.4" width="29.8" height="2.83" transform="translate(-12.4 -27.3) rotate(1)"/><rect class="cls-8" x="402" y="181.3" width="30.1" height="2.69" transform="matrix(1, 0.02, -0.02, 1, -12.26, -27.22)"/><rect class="cls-9" x="401.8" y="186.1" width="13.5" height="2.83" transform="translate(-12.2 -27.1) rotate(1)"/><rect class="cls-8" x="401.6" y="194.3" width="30.1" height="2.69" transform="translate(-12 -27.2) rotate(1)"/><rect class="cls-9" x="401.4" y="199.3" width="23.9" height="2.83" transform="translate(-11.9 -27.1) rotate(1)"/><rect class="cls-8" x="401.3" y="207" width="12" height="2.69" transform="translate(-11.8 -27) rotate(1)"/><rect class="cls-9" x="401.1" y="212.1" width="30.4" height="2.83" transform="translate(-11.7 -27.2) rotate(1)"/><rect class="cls-10" x="393.1" y="143.2" width="33" height="4.92" transform="translate(-12.9 -27.1) rotate(1)"/><path class="cls-11" d="M421.1,126.9a6.7,6.7,0,0,1-3.8-1.1c-2.2-1.6-1.8-3.9-4.1-5.2a6.8,6.8,0,0,0-7.5.5c-1.7,1.6-1.1,3.9-3.2,4.9a4.6,4.6,0,0,1-2.6.6,4.1,4.1,0,0,0-4.1,4.1v7.1h28.5v-7.5A3.4,3.4,0,0,0,421.1,126.9Zm-11.1-.3a2.6,2.6,0,1,1,0-5.1,2.6,2.6,0,0,1,0,5.1Z" transform="translate(-15.5 -20)"/></g><g id="Pencil"><rect class="cls-12" x="427.5" y="140.2" width="3.9" height="33.92"/><g class="cls-13"><line x1="430.1" y1="174.1" x2="430.1" y2="145.3"/><line x1="428.9" y1="174.1" x2="428.9" y2="145.3"/></g><polygon class="cls-14" points="429.5 178.2 427.5 174.1 431.4 174.1 429.5 178.2"/><polygon points="429.4 178.9 429 177.1 430 177.1 429.4 178.9"/><rect class="cls-15" x="427.5" y="142.6" width="3.9" height="2.66"/><path class="cls-16" d="M445,157.1h0a2,2,0,0,1,1.9,1.9v1.1H443V159A2,2,0,0,1,445,157.1Z" transform="translate(-15.5 -20)"/><rect class="cls-15" x="427.5" y="140.2" width="3.9" height="1.28"/></g><path class="cls-17" d="M46.9,509.4s58.6-57.2,129.7-33.8,201.3-29,200-113.2-45.8-49.7-32-29.5,67.5,21.4,81.4-22.8,35.5-44,35.5-44" transform="translate(-15.5 -20)"/><path class="cls-17" d="M79,194.6s37.1,22.4,25.7,42.2c-9.7,16.9-30-16.7,8.9-15.1s37.7,37.8,37.7,37.8" transform="translate(-15.5 -20)"/><path class="cls-17" d="M396.8,433.9s29.3,2.6,34.5-11.7-8.4-16-11-8.3,14.3,17.4,25.4,14.8" transform="translate(-15.5 -20)"/><polygon class="cls-18" points="54.6 287.6 27.2 290.6 36.7 272.8 54.6 287.6"/><polygon class="cls-18" points="421 344.1 430.2 333.9 436 347 421 344.1"/><polygon class="cls-18" points="212.1 191 206.7 174.7 221.8 179.1 212.1 191"/><line class="cls-19" x1="41.2" y1="462.2" x2="21.6" y2="458.9"/><line class="cls-19" x1="291.4" y1="307.5" x2="305.5" y2="288.7"/><line class="cls-19" x1="159.7" y1="186.6" x2="153.3" y2="158.3"/><line class="cls-19" x1="322.5" y1="358.7" x2="335.7" y2="355.7"/><line class="cls-20" x1="9.9" y1="530" x2="452.2" y2="530"/><path class="cls-5" d="M296.9,84.7c34.3,23.5,64.1,49.9,75,67.6,8.3,13.4,8.2,20.6,3.2,22.6-7.2,2.9-21.1-15.2-21.1-15.2s.7,12.2-7.4,10.8l.3.2s-2.3,6.6-10.5,6.3l-1.8-.2s-3.5,7.5-10.6,5.6a13,13,0,0,1-7.3-5.1,325.4,325.4,0,0,1-60.6-34.6Z" transform="translate(-15.5 -20)"/><path class="cls-19" d="M337.4,141s12.1,23.7,3.2,27.7-15.2-16.3-15.2-16.3-6.5.6-11.7-7.2" transform="translate(-15.5 -20)"/><path class="cls-19" d="M346.9,170.7s-2.3,6.6-10.5,6.3-15.2-10.2-15.2-15a5.6,5.6,0,0,1,5.7-5.5" transform="translate(-15.5 -20)"/><path class="cls-19" d="M334.6,176.8s-3.4,7.5-10.6,5.6-10.8-9.7-9.9-14.2a6.1,6.1,0,0,1,7.1-5.3" transform="translate(-15.5 -20)"/><line class="cls-19" x1="330.5" y1="133.2" x2="326.4" y2="131.1"/><path class="cls-19" d="M302.5,88.6c31.9,22.4,59.1,47,69.4,63.7,8.3,13.4,8.2,20.6,3.2,22.6-7.2,2.9-21.1-15.2-21.1-15.2s.9,16.9-12.6,8.6" transform="translate(-15.5 -20)"/><path class="cls-19" d="M316.7,177.3a321,321,0,0,1-62.3-35.9" transform="translate(-15.5 -20)"/><path class="cls-21" d="M289.1,79.5c11.7,7.7,23,15.8,33.4,23.9-.1,0-29.7,21.8-50.6,50a272.2,272.2,0,0,1-30-21.8C256.1,104.5,276.8,87.7,289.1,79.5Z" transform="translate(-15.5 -20)"/><path class="cls-19" d="M305.3,94.6s-21.8,13.1-43.3,45.8" transform="translate(-15.5 -20)"/><circle class="cls-19" cx="290.8" cy="84.6" r="3.8"/><path class="cls-19" d="M115.6,497c17-5.3,15.6-29.9,0-41.1-13.2-9.4-2.1-13.6-6.4-38.8s-27.3-37.7-54.3-25.4-30.7,57.3-.1,70.7c21.8,9.5,33.6-5,35.1,17.6A19.8,19.8,0,0,0,115.6,497Z" transform="translate(-15.5 -20)"/><circle class="cls-22" cx="248" cy="293.4" r="40.8" transform="translate(-49.5 12.6) rotate(-7)"/><path d="M288.6,297.2a40.7,40.7,0,0,0-36.8-44.4,54.5,54.5,0,0,0-7-.1,28.8,28.8,0,0,0-5.8.4c-20.1,2.8-33.4,21.2-28.5,24s15.2-11.4,15.2-11.4c-.3,1.6-6.7,10-1.2,11.8s11-11.9,11-11.9-4.4,10.7-.1,12.8,7.6-9.6,7.6-9.6-3.1,12.9,8.2,18.7,15,5.2,15,5.2h0a52.7,52.7,0,0,0,10.5,2.1L272.4,326A40.5,40.5,0,0,0,288.6,297.2Z" transform="translate(-15.5 -20)"/><path class="cls-5" d="M284.9,298.8a10.1,10.1,0,0,1-20.1-1.9,10,10,0,0,1,11-9.1A10.1,10.1,0,0,1,284.9,298.8Z" transform="translate(-15.5 -20)"/><path class="cls-19" d="M267.7,297.2a7.2,7.2,0,1,1,14.3,1.3,7.3,7.3,0,0,1-7.8,6.5" transform="translate(-15.5 -20)"/><circle cx="291.9" cy="233.6" r="26.6" transform="translate(-70.7 74.6) rotate(-16.8)"/><path d="M245.9,290.8c-.2,2.4-1.8,4.1-3.6,4s-3-2.2-2.8-4.6,1.9-4.1,3.6-3.9S246.2,288.5,245.9,290.8Z" transform="translate(-15.5 -20)"/><path d="M223.3,283.9c-.2,2.2-1.8,3.8-3.4,3.7s-2.8-2.1-2.6-4.3,1.7-3.8,3.3-3.7S223.5,281.7,223.3,283.9Z" transform="translate(-15.5 -20)"/><polyline class="cls-19" points="216.9 259.7 208.4 269.9 216.1 272.5"/><path class="cls-19" d="M221,300a60.8,60.8,0,0,1,11.9,1.7" transform="translate(-15.5 -20)"/><circle class="cls-23" cx="249.7" cy="301.5" r="7.4" transform="translate(-99.3 76.4) rotate(-18.8)"/><path class="cls-24" d="M217.6,295a6.3,6.3,0,0,0-9.4-7.9,28.9,28.9,0,0,0-.4,2.9,36.4,36.4,0,0,0,0,6.6,6.9,6.9,0,0,0,1.3,1.1A6.3,6.3,0,0,0,217.6,295Z" transform="translate(-15.5 -20)"/><path class="cls-5" d="M245.3,305.8c-.9-9.5-33.2-3.9-33.2-3.9,30.9-9.2,28.5-19.4,22.9-24.2-2.1-1.8-3.6-2.3-8.7-1.1l.4-.6a7.6,7.6,0,0,0-4-8.9c-4-2-15.3.7-25.8,4.2.4-.8,5.4-9.9-2.3-12.1s-70.7,31-94.9,49.3c-18.4,13.9-69.6,59.2-38.3,105.8s133.1,17.6,133.1,17.6,40.1-55.9,35.4-59.3-72.8-4.9-73.3-4.9c18-20,47.4-30.4,56.1-32,10.5-1.9,26.2-2.7,25.9-10.6-.2-5.7-7.9-6.8-12.2-7C245.4,318,246,312.9,245.3,305.8Zm-21.8,12.3Z" transform="translate(-15.5 -20)"/><g class="cls-25"><path class="cls-26" d="M161.5,409a12.6,12.6,0,0,0-8.4-6.6,13,13,0,0,0-15.8,10,13.6,13.6,0,0,0,9.7,16.3,13.2,13.2,0,0,0,11.3-2.7,13,13,0,0,0,24.2-3.4,13.5,13.5,0,0,0-9.7-16.3A12.6,12.6,0,0,0,161.5,409Z" transform="translate(-15.5 -20)"/><path class="cls-26" d="M98.9,426.1a13,13,0,0,0-24.2,3.4,13.5,13.5,0,0,0,9.7,16.3,12.5,12.5,0,0,0,11.3-2.7,12.6,12.6,0,0,0,8.4,6.6,13,13,0,0,0,15.8-10,13.6,13.6,0,0,0-9.7-16.3A13.2,13.2,0,0,0,98.9,426.1Z" transform="translate(-15.5 -20)"/><path class="cls-26" d="M105.6,364.6a13.2,13.2,0,0,0-8.4-6.6,13.1,13.1,0,0,0-15.8,10,13.5,13.5,0,0,0,9.7,16.3,12.5,12.5,0,0,0,11.3-2.7,13,13,0,0,0,24.2-3.4,13.6,13.6,0,0,0-9.7-16.3A12.9,12.9,0,0,0,105.6,364.6Z" transform="translate(-15.5 -20)"/><path class="cls-26" d="M150.1,327a12.6,12.6,0,0,0-8.4-6.6,13,13,0,0,0-15.8,10,13.6,13.6,0,0,0,9.7,16.3,13.1,13.1,0,0,0,11.3-2.7,13.2,13.2,0,0,0,8.4,6.6,13.1,13.1,0,0,0,15.8-10,13.5,13.5,0,0,0-9.7-16.3A12.6,12.6,0,0,0,150.1,327Z" transform="translate(-15.5 -20)"/><path class="cls-26" d="M86.6,311.5a12.8,12.8,0,0,0-8.5-6.6,13,13,0,0,0-15.8,10,13.7,13.7,0,0,0,9.8,16.3,13.3,13.3,0,0,0,11.3-2.7,13,13,0,0,0,24.2-3.4,13.5,13.5,0,0,0-9.7-16.3A12.5,12.5,0,0,0,86.6,311.5Z" transform="translate(-15.5 -20)"/><path class="cls-26" d="M40.6,384.2a13.2,13.2,0,0,0-8.4-6.6,13.1,13.1,0,0,0-15.8,10,13.5,13.5,0,0,0,9.7,16.3,12.8,12.8,0,0,0,11.3-2.6,13,13,0,0,0,24.2-3.5,13.5,13.5,0,0,0-9.7-16.2A12.8,12.8,0,0,0,40.6,384.2Z" transform="translate(-15.5 -20)"/><path class="cls-26" d="M152.8,372.2a15,15,0,0,0,3.2-1.9,13,13,0,0,0,23.8-1.9" transform="translate(-15.5 -20)"/></g><path class="cls-19" d="M180.4,278.4s35.1-17.6,43.1-10.7c3.6,3.1,4,5.8,3.2,8.3" transform="translate(-15.5 -20)"/><path class="cls-19" d="M196.9,288.5s29-16,37.4-11.2,7.3,16.5-22.2,24.6c0,0,33.2-7,33.6,4.8.3,8.4-2,12.4-31.8,11.1" transform="translate(-15.5 -20)"/><path class="cls-19" d="M223.5,318.1s14.8-.9,15.1,7-15.4,8.7-25.9,10.6-47.7,15.5-63.6,42" transform="translate(-15.5 -20)"/><path class="cls-19" d="M156.6,367.7s68.7,1.6,73.3,4.9-35.4,59.3-35.4,59.3S92.7,461,61.4,414.3s19.9-91.9,38.3-105.8c24.2-18.3,86.9-51.5,94.9-49.3s1.5,12.4,1.5,12.4" transform="translate(-15.5 -20)"/><path class="cls-27" d="M165.8,359a116.5,116.5,0,0,1,14.7-10.1h-.1c-26.4-23.1-35.2-68.5-35.2-68.5h0l-14.3,8C132.9,324.1,155.9,349.6,165.8,359Z" transform="translate(-15.5 -20)"/><line class="cls-19" x1="118.8" y1="273.9" x2="131.3" y2="267.1"/><line class="cls-19" x1="123.9" y1="292.4" x2="136.8" y2="284.5"/><line class="cls-19" x1="134.5" y1="312" x2="146.2" y2="304.9"/><line class="cls-19" x1="144.4" y1="327.9" x2="156.5" y2="320.2"/><path class="cls-5" d="M327.1,503s-9.5,52.6,70.3,39.7a23.8,23.8,0,0,0,7.7-12.9c11.5-55.4-15.5-82.8-60.2-117-58.2-44.7-82-37.1-82-37.1L327.1,503Z" transform="translate(-15.5 -20)"/><g class="cls-28"><path class="cls-26" d="M353.9,409a12.6,12.6,0,0,0-8.4-6.6,13,13,0,0,0-15.8,10,13.6,13.6,0,0,0,9.7,16.3,13.2,13.2,0,0,0,11.3-2.7,13,13,0,0,0,24.2-3.4,13.5,13.5,0,0,0-9.7-16.3A12.5,12.5,0,0,0,353.9,409Z" transform="translate(-15.5 -20)"/><path class="cls-26" d="M340.2,459.5a13,13,0,0,0-24.2,3.4,13.5,13.5,0,0,0,9.7,16.3,12.5,12.5,0,0,0,11.3-2.7,12.8,12.8,0,0,0,8.5,6.6,13,13,0,0,0,15.8-10,13.7,13.7,0,0,0-9.8-16.3A13.3,13.3,0,0,0,340.2,459.5Z" transform="translate(-15.5 -20)"/><path class="cls-26" d="M409.3,453.4a12.8,12.8,0,0,0-8.4-6.7,13.2,13.2,0,0,0-15.8,10.1,13.5,13.5,0,0,0,9.7,16.2,12.8,12.8,0,0,0,11.3-2.6,13.4,13.4,0,0,0,8.5,6.6,13.2,13.2,0,0,0,15.8-10,13.5,13.5,0,0,0-9.7-16.3A12.8,12.8,0,0,0,409.3,453.4Z" transform="translate(-15.5 -20)"/></g><path class="cls-19" d="M262.9,375.7s23.8-7.6,82,37.1c44.7,34.2,71.7,61.6,60.2,117" transform="translate(-15.5 -20)"/><path class="cls-5" d="M312.2,407.4s26.4,43.7,17.6,142.6H147.3s-2.7-106.3,35.4-148.7c0,0,30.4-39.2,71.8-31.2S312.2,407.4,312.2,407.4Z" transform="translate(-15.5 -20)"/><g class="cls-29"><path class="cls-26" d="M171.2,467.1a13,13,0,0,0-24.3,3.4,13.6,13.6,0,0,0,9.8,16.3,12.7,12.7,0,0,0,11.3-2.7,12.9,12.9,0,0,0,24.2-3.4,13.5,13.5,0,0,0-9.7-16.2A12.8,12.8,0,0,0,171.2,467.1Z" transform="translate(-15.5 -20)"/><path class="cls-26" d="M216.9,428.5a13,13,0,0,0-24.2,3.4,13.5,13.5,0,0,0,9.7,16.3,12.5,12.5,0,0,0,11.3-2.7,12.6,12.6,0,0,0,8.4,6.6,13,13,0,0,0,15.8-10,13.6,13.6,0,0,0-9.7-16.3A13.2,13.2,0,0,0,216.9,428.5Z" transform="translate(-15.5 -20)"/><path class="cls-26" d="M284.4,387.9a12.6,12.6,0,0,0-8.5-6.6,13,13,0,0,0-15.8,10,13.7,13.7,0,0,0,9.8,16.3,13.3,13.3,0,0,0,11.3-2.7,13,13,0,0,0,24.2-3.4,13.5,13.5,0,0,0-9.7-16.3A12.5,12.5,0,0,0,284.4,387.9Z" transform="translate(-15.5 -20)"/><path class="cls-26" d="M264.5,475a13.2,13.2,0,0,0-8.4-6.6,13,13,0,0,0-15.8,10,13.6,13.6,0,0,0,9.7,16.3,12.6,12.6,0,0,0,11.3-2.7,13,13,0,0,0,24.2-3.4,13.6,13.6,0,0,0-9.7-16.3A12.6,12.6,0,0,0,264.5,475Z" transform="translate(-15.5 -20)"/><path class="cls-26" d="M315.7,439.8a13.2,13.2,0,0,0-8.4-6.6,13.1,13.1,0,0,0-15.8,10,13.5,13.5,0,0,0,9.7,16.3,12.5,12.5,0,0,0,11.3-2.7,13,13,0,0,0,24.2-3.4,13.6,13.6,0,0,0-9.7-16.3A12.9,12.9,0,0,0,315.7,439.8Z" transform="translate(-15.5 -20)"/><path class="cls-26" d="M333,506.2a13.4,13.4,0,0,0-8.5-6.6,13.2,13.2,0,0,0-15.8,10c-1.6,7.3,2.7,14.6,9.7,16.3a12.8,12.8,0,0,0,11.4-2.7,12.4,12.4,0,0,0,8.4,6.6,13,13,0,0,0,15.8-10,13.6,13.6,0,0,0-9.7-16.3A13.1,13.1,0,0,0,333,506.2Z" transform="translate(-15.5 -20)"/><path class="cls-26" d="M216.9,518.3a13,13,0,0,0-24.2,3.4,13.5,13.5,0,0,0,9.7,16.3,12.5,12.5,0,0,0,11.3-2.7,12.9,12.9,0,0,0,24.2-3.4,13.4,13.4,0,0,0-9.7-16.2A12.8,12.8,0,0,0,216.9,518.3Z" transform="translate(-15.5 -20)"/><path class="cls-26" d="M146.7,541.2a13.2,13.2,0,0,0-8.4-6.6,13.1,13.1,0,0,0-15.8,10,13.5,13.5,0,0,0,9.7,16.3,12.6,12.6,0,0,0,11.3-2.7,12.6,12.6,0,0,0,8.4,6.6,13,13,0,0,0,15.8-10,13.6,13.6,0,0,0-9.7-16.3A12.9,12.9,0,0,0,146.7,541.2Z" transform="translate(-15.5 -20)"/><path class="cls-26" d="M211.6,379.9a13,13,0,0,0-24.3,3.4,13.6,13.6,0,0,0,9.8,16.3,12.7,12.7,0,0,0,11.3-2.7,12.6,12.6,0,0,0,8.4,6.6,13,13,0,0,0,15.8-10,13.6,13.6,0,0,0-9.7-16.3A13.1,13.1,0,0,0,211.6,379.9Z" transform="translate(-15.5 -20)"/></g><path class="cls-19" d="M312.2,407.4s26.4,43.7,17.6,142.6H147.3s-2.7-106.3,35.4-148.7" transform="translate(-15.5 -20)"/><path class="cls-27" d="M256.1,389.3c-9.6-.9-34.1-3.7-39.8-24.2-6.3-23,18-33.7,43-20.9,12.6,6.4,34-1.9,37.2,15S280.1,391.5,256.1,389.3Z" transform="translate(-15.5 -20)"/><path class="cls-19" d="M226.7,350.4s18.5,30.7,60.6,8.8" transform="translate(-15.5 -20)"/><path class="cls-19" d="M231.8,356.4a61.7,61.7,0,0,0-10.7,10.7" transform="translate(-15.5 -20)"/><path class="cls-19" d="M240,362.4a71,71,0,0,0-10.6,14.8" transform="translate(-15.5 -20)"/><path class="cls-19" d="M253.8,367.1s-2.5,11-2.8,16.3" transform="translate(-15.5 -20)"/><path class="cls-19" d="M267.2,366.4a52.8,52.8,0,0,1,3.2,14.6" transform="translate(-15.5 -20)"/><path class="cls-19" d="M280.2,362.4a53.7,53.7,0,0,1,5.2,12.2" transform="translate(-15.5 -20)"/><path class="cls-5" d="M315.3,513c-5-2.1-28.8-1.4-28.8-1.4h0c-18.9.4-38.9,3.3-54,8.1s-34.3,21.2-32.8,32.2,9.8,7,9.8,6.9c2.2,3.8,7.3,5,12,2.7h0c2.5,2.2,6.6,2.6,10.8.7,2.4,3.5,8.5,4.7,18-.1,19-9.5,45.6-5.4,45.6-5.4s51,2.5,56.2-22.6a5,5,0,0,1,.2-1.2C341.6,525,319.9,514.9,315.3,513Z" transform="translate(-15.5 -20)"/><path class="cls-19" d="M352.1,534.1c-5.2,25.1-56.2,22.6-56.2,22.6s-26.6-4.1-45.6,5.4-24.4-4.6-14.2-14a38.1,38.1,0,0,1,23-9.6" transform="translate(-15.5 -20)"/><path class="cls-19" d="M250.1,534.1s-21.1,1.8-28.4,14,1.7,18.2,10.6,14.1" transform="translate(-15.5 -20)"/><path class="cls-19" d="M239.1,529.4s-21,4.1-28.4,17.8c-6.5,12.1,2.8,18.2,10.8,14.3" transform="translate(-15.5 -20)"/><path class="cls-19" d="M209.5,558.8s-8.3,4-9.8-6.9,16.7-27.1,32.8-32.2c22-7,64.3-11.8,89.5-5.3" transform="translate(-15.5 -20)"/><path class="cls-22" d="M55.5,539.1a20.8,20.8,0,1,0,20.8-20.8A20.8,20.8,0,0,0,55.5,539.1Zm7.6,0a13.2,13.2,0,1,1,13.2,13.1A13.2,13.2,0,0,1,63.1,539.1Z" transform="translate(-15.5 -20)"/><rect class="cls-22" x="75.4" y="506.5" width="57.2" height="65.92" rx="11.4" transform="translate(192.5 1059) rotate(180)"/><path class="cls-23" d="M107,557.4a4.9,4.9,0,0,1-5.3-.1c-5.7-4-18.6-14.2-17.8-25.1s15.7-10.2,20.9,0c0,0,5.1-9.6,13.6-8.4S129.7,542.9,107,557.4Z" transform="translate(-15.5 -20)"/><ellipse cx="77.8" cy="518.2" rx="1.7" ry="2.8"/><ellipse cx="98.6" cy="518.2" rx="1.7" ry="2.8"/><path class="cls-19" d="M108.6,538.6c0,2.8-1.9,5.2-4.2,5.2s-4.1-2.4-4.1-5.2" transform="translate(-15.5 -20)"/><path d="M418.5,570.9l-106,.2c-11,.1-16.7-8.5-12.7-19l27.8-73.5c4-10.6,16.1-19.2,27.1-19.2l106-.2c11,0,16.6,8.5,12.7,19.1l-27.8,73.5C441.6,562.4,429.5,570.9,418.5,570.9Z" transform="translate(-15.5 -20)"/><path class="cls-5" d="M402.5,509.4c-1.3,4.6-6.1,8.4-10.7,8.4s-7.5-3.7-6.2-8.4a11.7,11.7,0,0,1,10.7-8.5C400.9,500.9,403.7,504.7,402.5,509.4Z" transform="translate(-15.5 -20)"/><path d="M235.7,568.6V557.8a2.5,2.5,0,0,1,2.5-2.5l106.8-.2a2.5,2.5,0,0,1,2.5,2.5v10.8a2.5,2.5,0,0,1-2.5,2.5l-106.7.2a2.6,2.6,0,0,1-2.6-2.5" transform="translate(-15.5 -20)"/><path class="cls-17" d="M406.9,104.1s37-22.4,25.7-42.1c-9.8-17-30.1,16.6,8.8,15s37.8-37.8,37.8-37.8" transform="translate(-15.5 -20)"/><path class="cls-17" d="M340.1,46.7s-24.7-16.1-36-5.9,0,18.1,5.9,12.6-4.5-22.2-15.5-25.1" transform="translate(-15.5 -20)"/><polygon class="cls-18" points="347.6 61.1 356.8 71.3 362.6 58.2 347.6 61.1"/><line class="cls-19" x1="440.8" y1="131.7" x2="459.1" y2="109.2"/><polygon class="cls-24" points="66.7 42.6 71.8 46.5 77.9 44.6 75.8 50.6 79.5 55.8 73.1 55.6 69.3 60.8 67.5 54.6 61.4 52.6 66.7 49 66.7 42.6"/><path class="cls-30" d="M70.1,106.9a35.8,35.8,0,0,0,44.5-7.4c9.6-11,11.2-27.3,3.8-40.6,1.1.8,15.8,9.9,16.5,28.5.6,14.4-9.3,30-23.9,34.6A35.4,35.4,0,0,1,70.1,106.9Z" transform="translate(-15.5 -20)"/><polygon class="cls-24" points="99.7 149.3 97.7 145.2 93.3 144.6 96.5 141.5 95.7 137.1 99.7 139.2 103.6 137.1 102.9 141.5 106.1 144.6 101.7 145.2 99.7 149.3"/><polygon class="cls-24" points="140.3 117.4 139.2 115.3 136.7 115 138.4 113.2 137.9 110.8 140.1 111.9 142.2 110.7 141.9 113.1 143.7 114.8 141.3 115.2 140.3 117.4"/><polygon class="cls-24" points="384.9 7.1 383.7 4.8 381.1 4.4 383 2.6 382.6 0 384.9 1.2 387.2 0 386.8 2.6 388.6 4.4 386 4.8 384.9 7.1"/><polygon class="cls-24" points="319.8 252.3 317.3 249 313.1 249.3 315.4 245.8 313.9 241.9 317.9 243.1 321.1 240.4 321.3 244.6 324.8 246.8 320.9 248.3 319.8 252.3"/><polygon class="cls-18" points="159.7 58.1 176.2 35.9 182.7 55.1 159.7 58.1"/><path class="cls-17" d="M73.9,36.4S51,49.8,57.8,61.9c5.8,10.5,18.5-9.9-5.3-9.3S29.1,75.4,29.1,75.4" transform="translate(-15.5 -20)"/></svg>